<mxfile host="app.diagrams.net" modified="2022-09-13T17:50:10.279Z" agent="5.0 (Windows NT 10.0; Win64; x64) AppleWebKit/537.36 (KHTML, like Gecko) Chrome/105.0.0.0 Safari/537.36 Edg/105.0.1343.33" etag="Vs5eWt4rWuLIykFVHFNR" version="20.3.0" type="github" pages="7">
  <diagram name="notFull 的副本" id="PjX-Wmk8LwkOCOPHsOdd">
    <mxGraphModel dx="1038" dy="547" grid="1" gridSize="10" guides="1" tooltips="1" connect="1" arrows="1" fold="1" page="1" pageScale="1" pageWidth="827" pageHeight="1169" background="#EEEEEE" math="0" shadow="0">
      <root>
        <mxCell id="nBWNYhoRYcE7i2_K8m3t-0" />
        <mxCell id="nBWNYhoRYcE7i2_K8m3t-1" parent="nBWNYhoRYcE7i2_K8m3t-0" />
        <mxCell id="nBWNYhoRYcE7i2_K8m3t-2" value="" style="shape=table;startSize=0;container=1;collapsible=0;childLayout=tableLayout;shadow=1;sketch=0;strokeColor=#6D1F00;fontColor=#ffffff;fillColor=#a0522d;" vertex="1" parent="nBWNYhoRYcE7i2_K8m3t-1">
          <mxGeometry x="140" y="750" width="60" height="40" as="geometry" />
        </mxCell>
        <mxCell id="nBWNYhoRYcE7i2_K8m3t-3" value="" style="shape=tableRow;horizontal=0;startSize=0;swimlaneHead=0;swimlaneBody=0;top=0;left=0;bottom=0;right=0;collapsible=0;dropTarget=0;fillColor=none;points=[[0,0.5],[1,0.5]];portConstraint=eastwest;shadow=1;sketch=0;strokeColor=#909090;fontColor=#1A1A1A;" vertex="1" parent="nBWNYhoRYcE7i2_K8m3t-2">
          <mxGeometry width="60" height="40" as="geometry" />
        </mxCell>
        <mxCell id="nBWNYhoRYcE7i2_K8m3t-4" value="" style="shape=partialRectangle;html=1;whiteSpace=wrap;connectable=0;overflow=hidden;fillColor=none;top=0;left=0;bottom=0;right=0;pointerEvents=1;shadow=1;sketch=0;strokeColor=#909090;fontColor=#1A1A1A;" vertex="1" parent="nBWNYhoRYcE7i2_K8m3t-3">
          <mxGeometry width="60" height="40" as="geometry">
            <mxRectangle width="60" height="40" as="alternateBounds" />
          </mxGeometry>
        </mxCell>
        <mxCell id="nBWNYhoRYcE7i2_K8m3t-5" value="" style="shape=table;startSize=0;container=1;collapsible=0;childLayout=tableLayout;shadow=1;sketch=0;strokeColor=#6D1F00;fontColor=#ffffff;fillColor=#a0522d;" vertex="1" parent="nBWNYhoRYcE7i2_K8m3t-1">
          <mxGeometry x="340" y="750" width="60" height="40" as="geometry" />
        </mxCell>
        <mxCell id="nBWNYhoRYcE7i2_K8m3t-6" value="" style="shape=tableRow;horizontal=0;startSize=0;swimlaneHead=0;swimlaneBody=0;top=0;left=0;bottom=0;right=0;collapsible=0;dropTarget=0;fillColor=none;points=[[0,0.5],[1,0.5]];portConstraint=eastwest;shadow=1;sketch=0;strokeColor=#909090;fontColor=#1A1A1A;" vertex="1" parent="nBWNYhoRYcE7i2_K8m3t-5">
          <mxGeometry width="60" height="40" as="geometry" />
        </mxCell>
        <mxCell id="nBWNYhoRYcE7i2_K8m3t-7" value="" style="shape=partialRectangle;html=1;whiteSpace=wrap;connectable=0;overflow=hidden;fillColor=none;top=0;left=0;bottom=0;right=0;pointerEvents=1;shadow=1;sketch=0;strokeColor=#909090;fontColor=#1A1A1A;" vertex="1" parent="nBWNYhoRYcE7i2_K8m3t-6">
          <mxGeometry width="60" height="40" as="geometry">
            <mxRectangle width="60" height="40" as="alternateBounds" />
          </mxGeometry>
        </mxCell>
        <mxCell id="nBWNYhoRYcE7i2_K8m3t-8" style="edgeStyle=orthogonalEdgeStyle;rounded=0;orthogonalLoop=1;jettySize=auto;html=1;entryX=0;entryY=0.5;entryDx=0;entryDy=0;strokeColor=#000000;fontColor=#1A1A1A;" edge="1" parent="nBWNYhoRYcE7i2_K8m3t-1" source="nBWNYhoRYcE7i2_K8m3t-3" target="nBWNYhoRYcE7i2_K8m3t-6">
          <mxGeometry relative="1" as="geometry" />
        </mxCell>
        <mxCell id="nBWNYhoRYcE7i2_K8m3t-9" style="edgeStyle=orthogonalEdgeStyle;rounded=0;orthogonalLoop=1;jettySize=auto;html=1;entryX=0;entryY=0.5;entryDx=0;entryDy=0;strokeColor=#000000;fontColor=#1A1A1A;" edge="1" parent="nBWNYhoRYcE7i2_K8m3t-1" target="nBWNYhoRYcE7i2_K8m3t-21">
          <mxGeometry relative="1" as="geometry">
            <mxPoint x="400" y="770" as="sourcePoint" />
          </mxGeometry>
        </mxCell>
        <mxCell id="nBWNYhoRYcE7i2_K8m3t-10" value="" style="shape=table;startSize=0;container=1;collapsible=0;childLayout=tableLayout;shadow=1;sketch=0;strokeColor=#6D1F00;fontColor=#ffffff;fillColor=#a0522d;" vertex="1" parent="nBWNYhoRYcE7i2_K8m3t-1">
          <mxGeometry x="723" y="750" width="60" height="40" as="geometry" />
        </mxCell>
        <mxCell id="nBWNYhoRYcE7i2_K8m3t-11" value="" style="shape=tableRow;horizontal=0;startSize=0;swimlaneHead=0;swimlaneBody=0;top=0;left=0;bottom=0;right=0;collapsible=0;dropTarget=0;fillColor=none;points=[[0,0.5],[1,0.5]];portConstraint=eastwest;shadow=1;sketch=0;strokeColor=#909090;fontColor=#1A1A1A;" vertex="1" parent="nBWNYhoRYcE7i2_K8m3t-10">
          <mxGeometry width="60" height="40" as="geometry" />
        </mxCell>
        <mxCell id="nBWNYhoRYcE7i2_K8m3t-12" value="" style="shape=partialRectangle;html=1;whiteSpace=wrap;connectable=0;overflow=hidden;fillColor=none;top=0;left=0;bottom=0;right=0;pointerEvents=1;shadow=1;sketch=0;strokeColor=#909090;fontColor=#1A1A1A;" vertex="1" parent="nBWNYhoRYcE7i2_K8m3t-11">
          <mxGeometry width="60" height="40" as="geometry">
            <mxRectangle width="60" height="40" as="alternateBounds" />
          </mxGeometry>
        </mxCell>
        <mxCell id="nBWNYhoRYcE7i2_K8m3t-13" style="edgeStyle=orthogonalEdgeStyle;rounded=0;orthogonalLoop=1;jettySize=auto;html=1;entryX=0;entryY=0.5;entryDx=0;entryDy=0;strokeColor=#000000;fontColor=#1A1A1A;startArrow=none;" edge="1" parent="nBWNYhoRYcE7i2_K8m3t-1" source="nBWNYhoRYcE7i2_K8m3t-20" target="nBWNYhoRYcE7i2_K8m3t-11">
          <mxGeometry relative="1" as="geometry">
            <mxPoint x="520" y="770" as="sourcePoint" />
          </mxGeometry>
        </mxCell>
        <mxCell id="nBWNYhoRYcE7i2_K8m3t-14" style="edgeStyle=orthogonalEdgeStyle;curved=1;rounded=0;orthogonalLoop=1;jettySize=auto;html=1;entryX=0.5;entryY=0;entryDx=0;entryDy=0;entryPerimeter=0;strokeColor=#000000;fontFamily=Comic Sans MS;fontSize=18;fontColor=#1A1A1A;" edge="1" parent="nBWNYhoRYcE7i2_K8m3t-1" source="nBWNYhoRYcE7i2_K8m3t-15">
          <mxGeometry relative="1" as="geometry">
            <mxPoint x="170" y="750" as="targetPoint" />
          </mxGeometry>
        </mxCell>
        <mxCell id="nBWNYhoRYcE7i2_K8m3t-15" value="&lt;font style=&quot;font-size: 18px;&quot; face=&quot;Comic Sans MS&quot;&gt;&lt;b&gt;firstWaiter&lt;/b&gt;&lt;/font&gt;" style="text;html=1;strokeColor=#E3C800;fillColor=#E3C800;align=center;verticalAlign=middle;whiteSpace=wrap;rounded=1;shadow=1;sketch=0;fontColor=#000000;" vertex="1" parent="nBWNYhoRYcE7i2_K8m3t-1">
          <mxGeometry x="100" y="660" width="140" height="40" as="geometry" />
        </mxCell>
        <mxCell id="nBWNYhoRYcE7i2_K8m3t-16" style="edgeStyle=orthogonalEdgeStyle;curved=1;rounded=0;orthogonalLoop=1;jettySize=auto;html=1;entryX=0.5;entryY=0;entryDx=0;entryDy=0;entryPerimeter=0;strokeColor=#000000;fontFamily=Comic Sans MS;fontSize=18;fontColor=#1A1A1A;" edge="1" parent="nBWNYhoRYcE7i2_K8m3t-1" source="nBWNYhoRYcE7i2_K8m3t-17">
          <mxGeometry relative="1" as="geometry">
            <mxPoint x="750" y="750" as="targetPoint" />
          </mxGeometry>
        </mxCell>
        <mxCell id="nBWNYhoRYcE7i2_K8m3t-17" value="&lt;font style=&quot;font-size: 18px;&quot; face=&quot;Comic Sans MS&quot;&gt;&lt;b&gt;lastWaiter&lt;/b&gt;&lt;/font&gt;" style="text;html=1;strokeColor=#E3C800;fillColor=#e3c800;align=center;verticalAlign=middle;whiteSpace=wrap;rounded=1;shadow=1;sketch=0;fontColor=#000000;" vertex="1" parent="nBWNYhoRYcE7i2_K8m3t-1">
          <mxGeometry x="680" y="660" width="140" height="40" as="geometry" />
        </mxCell>
        <mxCell id="nBWNYhoRYcE7i2_K8m3t-18" value="&lt;b&gt;nextWaiter&lt;/b&gt;" style="rounded=1;whiteSpace=wrap;html=1;shadow=1;sketch=0;strokeColor=#6D8764;fontFamily=Comic Sans MS;fontSize=18;fontColor=#ffffff;fillColor=#6D8764;" vertex="1" parent="nBWNYhoRYcE7i2_K8m3t-1">
          <mxGeometry x="220" y="720" width="110" height="40" as="geometry" />
        </mxCell>
        <mxCell id="nBWNYhoRYcE7i2_K8m3t-19" value="&lt;b&gt;notFull&lt;br&gt;&lt;/b&gt;" style="text;html=1;strokeColor=#76608A;fillColor=#76608A;align=center;verticalAlign=middle;whiteSpace=wrap;rounded=1;shadow=1;sketch=0;fontFamily=Comic Sans MS;fontSize=18;fontColor=#ffffff;" vertex="1" parent="nBWNYhoRYcE7i2_K8m3t-1">
          <mxGeometry y="735" width="100" height="55" as="geometry" />
        </mxCell>
        <mxCell id="nBWNYhoRYcE7i2_K8m3t-20" value="" style="shape=table;startSize=0;container=1;collapsible=0;childLayout=tableLayout;shadow=1;sketch=0;strokeColor=#6D1F00;fontColor=#ffffff;fillColor=#a0522d;" vertex="1" parent="nBWNYhoRYcE7i2_K8m3t-1">
          <mxGeometry x="510" y="750" width="60" height="40" as="geometry" />
        </mxCell>
        <mxCell id="nBWNYhoRYcE7i2_K8m3t-21" value="" style="shape=tableRow;horizontal=0;startSize=0;swimlaneHead=0;swimlaneBody=0;top=0;left=0;bottom=0;right=0;collapsible=0;dropTarget=0;fillColor=none;points=[[0,0.5],[1,0.5]];portConstraint=eastwest;shadow=1;sketch=0;strokeColor=#909090;fontColor=#1A1A1A;" vertex="1" parent="nBWNYhoRYcE7i2_K8m3t-20">
          <mxGeometry width="60" height="40" as="geometry" />
        </mxCell>
        <mxCell id="nBWNYhoRYcE7i2_K8m3t-22" value="" style="shape=partialRectangle;html=1;whiteSpace=wrap;connectable=0;overflow=hidden;fillColor=none;top=0;left=0;bottom=0;right=0;pointerEvents=1;shadow=1;sketch=0;strokeColor=#909090;fontColor=#1A1A1A;" vertex="1" parent="nBWNYhoRYcE7i2_K8m3t-21">
          <mxGeometry width="60" height="40" as="geometry">
            <mxRectangle width="60" height="40" as="alternateBounds" />
          </mxGeometry>
        </mxCell>
        <mxCell id="nBWNYhoRYcE7i2_K8m3t-23" value="" style="edgeStyle=orthogonalEdgeStyle;rounded=0;orthogonalLoop=1;jettySize=auto;html=1;entryX=0;entryY=0.5;entryDx=0;entryDy=0;strokeColor=#000000;fontColor=#1A1A1A;endArrow=none;" edge="1" parent="nBWNYhoRYcE7i2_K8m3t-1" target="nBWNYhoRYcE7i2_K8m3t-20">
          <mxGeometry relative="1" as="geometry">
            <mxPoint x="520" y="770" as="sourcePoint" />
            <mxPoint x="670" y="770" as="targetPoint" />
          </mxGeometry>
        </mxCell>
        <mxCell id="nBWNYhoRYcE7i2_K8m3t-24" value="" style="shape=table;startSize=0;container=1;collapsible=0;childLayout=tableLayout;shadow=1;sketch=0;strokeColor=#6D1F00;fontColor=#ffffff;fillColor=#a0522d;" vertex="1" parent="nBWNYhoRYcE7i2_K8m3t-1">
          <mxGeometry x="140" y="1080" width="60" height="40" as="geometry" />
        </mxCell>
        <mxCell id="nBWNYhoRYcE7i2_K8m3t-25" value="" style="shape=tableRow;horizontal=0;startSize=0;swimlaneHead=0;swimlaneBody=0;top=0;left=0;bottom=0;right=0;collapsible=0;dropTarget=0;fillColor=none;points=[[0,0.5],[1,0.5]];portConstraint=eastwest;shadow=1;sketch=0;strokeColor=#909090;fontColor=#1A1A1A;" vertex="1" parent="nBWNYhoRYcE7i2_K8m3t-24">
          <mxGeometry width="60" height="40" as="geometry" />
        </mxCell>
        <mxCell id="nBWNYhoRYcE7i2_K8m3t-26" value="" style="shape=partialRectangle;html=1;whiteSpace=wrap;connectable=0;overflow=hidden;fillColor=none;top=0;left=0;bottom=0;right=0;pointerEvents=1;shadow=1;sketch=0;strokeColor=#909090;fontColor=#1A1A1A;" vertex="1" parent="nBWNYhoRYcE7i2_K8m3t-25">
          <mxGeometry width="60" height="40" as="geometry">
            <mxRectangle width="60" height="40" as="alternateBounds" />
          </mxGeometry>
        </mxCell>
        <mxCell id="nBWNYhoRYcE7i2_K8m3t-27" value="" style="shape=table;startSize=0;container=1;collapsible=0;childLayout=tableLayout;shadow=1;sketch=0;strokeColor=#6D1F00;fontColor=#ffffff;fillColor=#a0522d;" vertex="1" parent="nBWNYhoRYcE7i2_K8m3t-1">
          <mxGeometry x="340" y="1080" width="60" height="40" as="geometry" />
        </mxCell>
        <mxCell id="nBWNYhoRYcE7i2_K8m3t-28" value="" style="shape=tableRow;horizontal=0;startSize=0;swimlaneHead=0;swimlaneBody=0;top=0;left=0;bottom=0;right=0;collapsible=0;dropTarget=0;fillColor=none;points=[[0,0.5],[1,0.5]];portConstraint=eastwest;shadow=1;sketch=0;strokeColor=#909090;fontColor=#1A1A1A;" vertex="1" parent="nBWNYhoRYcE7i2_K8m3t-27">
          <mxGeometry width="60" height="40" as="geometry" />
        </mxCell>
        <mxCell id="nBWNYhoRYcE7i2_K8m3t-29" value="" style="shape=partialRectangle;html=1;whiteSpace=wrap;connectable=0;overflow=hidden;fillColor=none;top=0;left=0;bottom=0;right=0;pointerEvents=1;shadow=1;sketch=0;strokeColor=#909090;fontColor=#1A1A1A;" vertex="1" parent="nBWNYhoRYcE7i2_K8m3t-28">
          <mxGeometry width="60" height="40" as="geometry">
            <mxRectangle width="60" height="40" as="alternateBounds" />
          </mxGeometry>
        </mxCell>
        <mxCell id="nBWNYhoRYcE7i2_K8m3t-30" style="edgeStyle=orthogonalEdgeStyle;rounded=0;orthogonalLoop=1;jettySize=auto;html=1;entryX=0;entryY=0.5;entryDx=0;entryDy=0;strokeColor=#000000;fontColor=#1A1A1A;" edge="1" parent="nBWNYhoRYcE7i2_K8m3t-1" source="nBWNYhoRYcE7i2_K8m3t-25" target="nBWNYhoRYcE7i2_K8m3t-28">
          <mxGeometry relative="1" as="geometry" />
        </mxCell>
        <mxCell id="nBWNYhoRYcE7i2_K8m3t-31" style="edgeStyle=orthogonalEdgeStyle;rounded=0;orthogonalLoop=1;jettySize=auto;html=1;entryX=0;entryY=0.5;entryDx=0;entryDy=0;strokeColor=#000000;fontColor=#1A1A1A;" edge="1" parent="nBWNYhoRYcE7i2_K8m3t-1" target="nBWNYhoRYcE7i2_K8m3t-43">
          <mxGeometry relative="1" as="geometry">
            <mxPoint x="400" y="1100" as="sourcePoint" />
          </mxGeometry>
        </mxCell>
        <mxCell id="nBWNYhoRYcE7i2_K8m3t-32" value="" style="shape=table;startSize=0;container=1;collapsible=0;childLayout=tableLayout;shadow=1;sketch=0;strokeColor=#6D1F00;fontColor=#ffffff;fillColor=#a0522d;" vertex="1" parent="nBWNYhoRYcE7i2_K8m3t-1">
          <mxGeometry x="723" y="1080" width="60" height="40" as="geometry" />
        </mxCell>
        <mxCell id="nBWNYhoRYcE7i2_K8m3t-33" value="" style="shape=tableRow;horizontal=0;startSize=0;swimlaneHead=0;swimlaneBody=0;top=0;left=0;bottom=0;right=0;collapsible=0;dropTarget=0;fillColor=none;points=[[0,0.5],[1,0.5]];portConstraint=eastwest;shadow=1;sketch=0;strokeColor=#909090;fontColor=#1A1A1A;" vertex="1" parent="nBWNYhoRYcE7i2_K8m3t-32">
          <mxGeometry width="60" height="40" as="geometry" />
        </mxCell>
        <mxCell id="nBWNYhoRYcE7i2_K8m3t-34" value="" style="shape=partialRectangle;html=1;whiteSpace=wrap;connectable=0;overflow=hidden;fillColor=none;top=0;left=0;bottom=0;right=0;pointerEvents=1;shadow=1;sketch=0;strokeColor=#909090;fontColor=#1A1A1A;" vertex="1" parent="nBWNYhoRYcE7i2_K8m3t-33">
          <mxGeometry width="60" height="40" as="geometry">
            <mxRectangle width="60" height="40" as="alternateBounds" />
          </mxGeometry>
        </mxCell>
        <mxCell id="nBWNYhoRYcE7i2_K8m3t-35" style="edgeStyle=orthogonalEdgeStyle;rounded=0;orthogonalLoop=1;jettySize=auto;html=1;entryX=0;entryY=0.5;entryDx=0;entryDy=0;strokeColor=#000000;fontColor=#1A1A1A;startArrow=none;" edge="1" parent="nBWNYhoRYcE7i2_K8m3t-1" source="nBWNYhoRYcE7i2_K8m3t-42" target="nBWNYhoRYcE7i2_K8m3t-33">
          <mxGeometry relative="1" as="geometry">
            <mxPoint x="520" y="1100" as="sourcePoint" />
          </mxGeometry>
        </mxCell>
        <mxCell id="nBWNYhoRYcE7i2_K8m3t-36" style="edgeStyle=orthogonalEdgeStyle;curved=1;rounded=0;orthogonalLoop=1;jettySize=auto;html=1;entryX=0.5;entryY=0;entryDx=0;entryDy=0;entryPerimeter=0;strokeColor=#000000;fontFamily=Comic Sans MS;fontSize=18;fontColor=#1A1A1A;" edge="1" parent="nBWNYhoRYcE7i2_K8m3t-1" source="nBWNYhoRYcE7i2_K8m3t-37">
          <mxGeometry relative="1" as="geometry">
            <mxPoint x="170" y="1080" as="targetPoint" />
          </mxGeometry>
        </mxCell>
        <mxCell id="nBWNYhoRYcE7i2_K8m3t-37" value="&lt;font style=&quot;font-size: 18px;&quot; face=&quot;Comic Sans MS&quot;&gt;&lt;b&gt;firstWaiter&lt;/b&gt;&lt;/font&gt;" style="text;html=1;strokeColor=#E3C800;fillColor=#E3C800;align=center;verticalAlign=middle;whiteSpace=wrap;rounded=1;shadow=1;sketch=0;fontColor=#000000;" vertex="1" parent="nBWNYhoRYcE7i2_K8m3t-1">
          <mxGeometry x="100" y="990" width="140" height="40" as="geometry" />
        </mxCell>
        <mxCell id="nBWNYhoRYcE7i2_K8m3t-38" style="edgeStyle=orthogonalEdgeStyle;curved=1;rounded=0;orthogonalLoop=1;jettySize=auto;html=1;entryX=0.5;entryY=0;entryDx=0;entryDy=0;entryPerimeter=0;strokeColor=#000000;fontFamily=Comic Sans MS;fontSize=18;fontColor=#1A1A1A;" edge="1" parent="nBWNYhoRYcE7i2_K8m3t-1" source="nBWNYhoRYcE7i2_K8m3t-39">
          <mxGeometry relative="1" as="geometry">
            <mxPoint x="750" y="1080" as="targetPoint" />
          </mxGeometry>
        </mxCell>
        <mxCell id="nBWNYhoRYcE7i2_K8m3t-39" value="&lt;font style=&quot;font-size: 18px;&quot; face=&quot;Comic Sans MS&quot;&gt;&lt;b&gt;lastWaiter&lt;/b&gt;&lt;/font&gt;" style="text;html=1;strokeColor=#E3C800;fillColor=#e3c800;align=center;verticalAlign=middle;whiteSpace=wrap;rounded=1;shadow=1;sketch=0;fontColor=#000000;" vertex="1" parent="nBWNYhoRYcE7i2_K8m3t-1">
          <mxGeometry x="680" y="990" width="140" height="40" as="geometry" />
        </mxCell>
        <mxCell id="nBWNYhoRYcE7i2_K8m3t-40" value="&lt;b&gt;nextWaiter&lt;/b&gt;" style="rounded=1;whiteSpace=wrap;html=1;shadow=1;sketch=0;strokeColor=#6D8764;fontFamily=Comic Sans MS;fontSize=18;fontColor=#ffffff;fillColor=#6D8764;" vertex="1" parent="nBWNYhoRYcE7i2_K8m3t-1">
          <mxGeometry x="220" y="1050" width="110" height="40" as="geometry" />
        </mxCell>
        <mxCell id="nBWNYhoRYcE7i2_K8m3t-41" value="&lt;b&gt;notEmpty&lt;br&gt;&lt;/b&gt;" style="text;html=1;strokeColor=#76608A;fillColor=#76608A;align=center;verticalAlign=middle;whiteSpace=wrap;rounded=1;shadow=1;sketch=0;fontFamily=Comic Sans MS;fontSize=18;fontColor=#ffffff;" vertex="1" parent="nBWNYhoRYcE7i2_K8m3t-1">
          <mxGeometry y="1065" width="100" height="55" as="geometry" />
        </mxCell>
        <mxCell id="nBWNYhoRYcE7i2_K8m3t-42" value="" style="shape=table;startSize=0;container=1;collapsible=0;childLayout=tableLayout;shadow=1;sketch=0;strokeColor=#6D1F00;fontColor=#ffffff;fillColor=#a0522d;" vertex="1" parent="nBWNYhoRYcE7i2_K8m3t-1">
          <mxGeometry x="510" y="1080" width="60" height="40" as="geometry" />
        </mxCell>
        <mxCell id="nBWNYhoRYcE7i2_K8m3t-43" value="" style="shape=tableRow;horizontal=0;startSize=0;swimlaneHead=0;swimlaneBody=0;top=0;left=0;bottom=0;right=0;collapsible=0;dropTarget=0;fillColor=none;points=[[0,0.5],[1,0.5]];portConstraint=eastwest;shadow=1;sketch=0;strokeColor=#909090;fontColor=#1A1A1A;" vertex="1" parent="nBWNYhoRYcE7i2_K8m3t-42">
          <mxGeometry width="60" height="40" as="geometry" />
        </mxCell>
        <mxCell id="nBWNYhoRYcE7i2_K8m3t-44" value="" style="shape=partialRectangle;html=1;whiteSpace=wrap;connectable=0;overflow=hidden;fillColor=none;top=0;left=0;bottom=0;right=0;pointerEvents=1;shadow=1;sketch=0;strokeColor=#909090;fontColor=#1A1A1A;" vertex="1" parent="nBWNYhoRYcE7i2_K8m3t-43">
          <mxGeometry width="60" height="40" as="geometry">
            <mxRectangle width="60" height="40" as="alternateBounds" />
          </mxGeometry>
        </mxCell>
        <mxCell id="nBWNYhoRYcE7i2_K8m3t-45" value="" style="edgeStyle=orthogonalEdgeStyle;rounded=0;orthogonalLoop=1;jettySize=auto;html=1;entryX=0;entryY=0.5;entryDx=0;entryDy=0;strokeColor=#000000;fontColor=#1A1A1A;endArrow=none;" edge="1" parent="nBWNYhoRYcE7i2_K8m3t-1" target="nBWNYhoRYcE7i2_K8m3t-42">
          <mxGeometry relative="1" as="geometry">
            <mxPoint x="520" y="1100" as="sourcePoint" />
            <mxPoint x="670" y="1100" as="targetPoint" />
          </mxGeometry>
        </mxCell>
        <mxCell id="nBWNYhoRYcE7i2_K8m3t-46" value="" style="shape=table;startSize=0;container=1;collapsible=0;childLayout=tableLayout;fillColor=#f5f5f5;fontColor=#333333;strokeColor=#666666;shadow=1;" vertex="1" parent="nBWNYhoRYcE7i2_K8m3t-1">
          <mxGeometry x="100" y="370" width="720" height="40" as="geometry" />
        </mxCell>
        <mxCell id="nBWNYhoRYcE7i2_K8m3t-47" value="" style="shape=tableRow;horizontal=0;startSize=0;swimlaneHead=0;swimlaneBody=0;top=0;left=0;bottom=0;right=0;collapsible=0;dropTarget=0;fillColor=none;points=[[0,0.5],[1,0.5]];portConstraint=eastwest;" vertex="1" parent="nBWNYhoRYcE7i2_K8m3t-46">
          <mxGeometry width="720" height="40" as="geometry" />
        </mxCell>
        <mxCell id="nBWNYhoRYcE7i2_K8m3t-48" value="&lt;font style=&quot;font-size: 18px;&quot; face=&quot;Comic Sans MS&quot;&gt;&lt;b&gt;item&lt;/b&gt;&lt;/font&gt;" style="shape=partialRectangle;html=1;whiteSpace=wrap;connectable=0;overflow=hidden;fillColor=none;top=0;left=0;bottom=0;right=0;pointerEvents=1;" vertex="1" parent="nBWNYhoRYcE7i2_K8m3t-47">
          <mxGeometry width="60" height="40" as="geometry">
            <mxRectangle width="60" height="40" as="alternateBounds" />
          </mxGeometry>
        </mxCell>
        <mxCell id="nBWNYhoRYcE7i2_K8m3t-49" value="&lt;b style=&quot;font-family: &amp;quot;Comic Sans MS&amp;quot;; font-size: 18px;&quot;&gt;item&lt;/b&gt;" style="shape=partialRectangle;html=1;whiteSpace=wrap;connectable=0;overflow=hidden;fillColor=none;top=0;left=0;bottom=0;right=0;pointerEvents=1;" vertex="1" parent="nBWNYhoRYcE7i2_K8m3t-47">
          <mxGeometry x="60" width="60" height="40" as="geometry">
            <mxRectangle width="60" height="40" as="alternateBounds" />
          </mxGeometry>
        </mxCell>
        <mxCell id="nBWNYhoRYcE7i2_K8m3t-50" value="&lt;b style=&quot;font-family: &amp;quot;Comic Sans MS&amp;quot;; font-size: 18px;&quot;&gt;item&lt;/b&gt;" style="shape=partialRectangle;html=1;whiteSpace=wrap;connectable=0;overflow=hidden;fillColor=none;top=0;left=0;bottom=0;right=0;pointerEvents=1;" vertex="1" parent="nBWNYhoRYcE7i2_K8m3t-47">
          <mxGeometry x="120" width="60" height="40" as="geometry">
            <mxRectangle width="60" height="40" as="alternateBounds" />
          </mxGeometry>
        </mxCell>
        <mxCell id="nBWNYhoRYcE7i2_K8m3t-51" value="&lt;b style=&quot;font-family: &amp;quot;Comic Sans MS&amp;quot;; font-size: 18px;&quot;&gt;item&lt;/b&gt;" style="shape=partialRectangle;html=1;whiteSpace=wrap;connectable=0;overflow=hidden;fillColor=none;top=0;left=0;bottom=0;right=0;pointerEvents=1;" vertex="1" parent="nBWNYhoRYcE7i2_K8m3t-47">
          <mxGeometry x="180" width="60" height="40" as="geometry">
            <mxRectangle width="60" height="40" as="alternateBounds" />
          </mxGeometry>
        </mxCell>
        <mxCell id="nBWNYhoRYcE7i2_K8m3t-52" value="&lt;b style=&quot;font-family: &amp;quot;Comic Sans MS&amp;quot;; font-size: 18px;&quot;&gt;item&lt;/b&gt;" style="shape=partialRectangle;html=1;whiteSpace=wrap;connectable=0;overflow=hidden;fillColor=none;top=0;left=0;bottom=0;right=0;pointerEvents=1;" vertex="1" parent="nBWNYhoRYcE7i2_K8m3t-47">
          <mxGeometry x="240" width="60" height="40" as="geometry">
            <mxRectangle width="60" height="40" as="alternateBounds" />
          </mxGeometry>
        </mxCell>
        <mxCell id="nBWNYhoRYcE7i2_K8m3t-53" value="&lt;b style=&quot;font-family: &amp;quot;Comic Sans MS&amp;quot;; font-size: 18px;&quot;&gt;item&lt;/b&gt;" style="shape=partialRectangle;html=1;whiteSpace=wrap;connectable=0;overflow=hidden;fillColor=none;top=0;left=0;bottom=0;right=0;pointerEvents=1;" vertex="1" parent="nBWNYhoRYcE7i2_K8m3t-47">
          <mxGeometry x="300" width="60" height="40" as="geometry">
            <mxRectangle width="60" height="40" as="alternateBounds" />
          </mxGeometry>
        </mxCell>
        <mxCell id="nBWNYhoRYcE7i2_K8m3t-54" value="&lt;b style=&quot;font-family: &amp;quot;Comic Sans MS&amp;quot;; font-size: 18px;&quot;&gt;item&lt;/b&gt;" style="shape=partialRectangle;html=1;whiteSpace=wrap;connectable=0;overflow=hidden;fillColor=none;top=0;left=0;bottom=0;right=0;pointerEvents=1;" vertex="1" parent="nBWNYhoRYcE7i2_K8m3t-47">
          <mxGeometry x="360" width="60" height="40" as="geometry">
            <mxRectangle width="60" height="40" as="alternateBounds" />
          </mxGeometry>
        </mxCell>
        <mxCell id="nBWNYhoRYcE7i2_K8m3t-55" value="&lt;b style=&quot;font-family: &amp;quot;Comic Sans MS&amp;quot;; font-size: 18px;&quot;&gt;item&lt;/b&gt;" style="shape=partialRectangle;html=1;whiteSpace=wrap;connectable=0;overflow=hidden;fillColor=none;top=0;left=0;bottom=0;right=0;pointerEvents=1;" vertex="1" parent="nBWNYhoRYcE7i2_K8m3t-47">
          <mxGeometry x="420" width="60" height="40" as="geometry">
            <mxRectangle width="60" height="40" as="alternateBounds" />
          </mxGeometry>
        </mxCell>
        <mxCell id="nBWNYhoRYcE7i2_K8m3t-56" value="&lt;b style=&quot;font-family: &amp;quot;Comic Sans MS&amp;quot;; font-size: 18px;&quot;&gt;item&lt;/b&gt;" style="shape=partialRectangle;html=1;whiteSpace=wrap;connectable=0;overflow=hidden;fillColor=none;top=0;left=0;bottom=0;right=0;pointerEvents=1;" vertex="1" parent="nBWNYhoRYcE7i2_K8m3t-47">
          <mxGeometry x="480" width="60" height="40" as="geometry">
            <mxRectangle width="60" height="40" as="alternateBounds" />
          </mxGeometry>
        </mxCell>
        <mxCell id="nBWNYhoRYcE7i2_K8m3t-57" value="&lt;b style=&quot;font-family: &amp;quot;Comic Sans MS&amp;quot;; font-size: 18px;&quot;&gt;item&lt;/b&gt;" style="shape=partialRectangle;html=1;whiteSpace=wrap;connectable=0;overflow=hidden;fillColor=none;top=0;left=0;bottom=0;right=0;pointerEvents=1;" vertex="1" parent="nBWNYhoRYcE7i2_K8m3t-47">
          <mxGeometry x="540" width="60" height="40" as="geometry">
            <mxRectangle width="60" height="40" as="alternateBounds" />
          </mxGeometry>
        </mxCell>
        <mxCell id="nBWNYhoRYcE7i2_K8m3t-58" value="&lt;b style=&quot;font-family: &amp;quot;Comic Sans MS&amp;quot;; font-size: 18px;&quot;&gt;item&lt;/b&gt;" style="shape=partialRectangle;html=1;whiteSpace=wrap;connectable=0;overflow=hidden;fillColor=none;top=0;left=0;bottom=0;right=0;pointerEvents=1;" vertex="1" parent="nBWNYhoRYcE7i2_K8m3t-47">
          <mxGeometry x="600" width="60" height="40" as="geometry">
            <mxRectangle width="60" height="40" as="alternateBounds" />
          </mxGeometry>
        </mxCell>
        <mxCell id="nBWNYhoRYcE7i2_K8m3t-59" value="&lt;b style=&quot;font-family: &amp;quot;Comic Sans MS&amp;quot;; font-size: 18px;&quot;&gt;item&lt;/b&gt;" style="shape=partialRectangle;html=1;whiteSpace=wrap;connectable=0;overflow=hidden;fillColor=none;top=0;left=0;bottom=0;right=0;pointerEvents=1;" vertex="1" parent="nBWNYhoRYcE7i2_K8m3t-47">
          <mxGeometry x="660" width="60" height="40" as="geometry">
            <mxRectangle width="60" height="40" as="alternateBounds" />
          </mxGeometry>
        </mxCell>
        <mxCell id="nBWNYhoRYcE7i2_K8m3t-60" value="&lt;font style=&quot;font-size: 18px;&quot; face=&quot;Comic Sans MS&quot;&gt;&lt;b&gt;items&lt;/b&gt;&lt;/font&gt;" style="text;html=1;strokeColor=#E1D5E7;fillColor=#E1D5E7;align=center;verticalAlign=middle;whiteSpace=wrap;rounded=1;shadow=1;" vertex="1" parent="nBWNYhoRYcE7i2_K8m3t-1">
          <mxGeometry y="370" width="80" height="40" as="geometry" />
        </mxCell>
        <mxCell id="nBWNYhoRYcE7i2_K8m3t-61" value="&lt;font style=&quot;font-size: 18px;&quot; face=&quot;Comic Sans MS&quot;&gt;&lt;b&gt;ArrayBlockingQueue&lt;/b&gt;&lt;/font&gt;" style="text;html=1;strokeColor=#E1D5E7;fillColor=#E1D5E7;align=center;verticalAlign=middle;whiteSpace=wrap;rounded=1;shadow=1;" vertex="1" parent="nBWNYhoRYcE7i2_K8m3t-1">
          <mxGeometry x="190" y="190" width="240" height="60" as="geometry" />
        </mxCell>
      </root>
    </mxGraphModel>
  </diagram>
  <diagram name="arrayBlockingQueue" id="xEBGM7oWdb0nSxHATTDx">
    <mxGraphModel dx="1038" dy="547" grid="1" gridSize="10" guides="1" tooltips="1" connect="1" arrows="1" fold="1" page="1" pageScale="1" pageWidth="827" pageHeight="1169" background="#EEEEEE" math="0" shadow="0">
      <root>
        <mxCell id="41mGn1arPXy_OmCfDIUA-0" />
        <mxCell id="41mGn1arPXy_OmCfDIUA-1" parent="41mGn1arPXy_OmCfDIUA-0" />
        <mxCell id="41mGn1arPXy_OmCfDIUA-46" value="" style="shape=table;startSize=0;container=1;collapsible=0;childLayout=tableLayout;fillColor=#f5f5f5;fontColor=#333333;strokeColor=#666666;shadow=1;" vertex="1" parent="41mGn1arPXy_OmCfDIUA-1">
          <mxGeometry x="100" y="370" width="720" height="40" as="geometry" />
        </mxCell>
        <mxCell id="41mGn1arPXy_OmCfDIUA-47" value="" style="shape=tableRow;horizontal=0;startSize=0;swimlaneHead=0;swimlaneBody=0;top=0;left=0;bottom=0;right=0;collapsible=0;dropTarget=0;fillColor=none;points=[[0,0.5],[1,0.5]];portConstraint=eastwest;" vertex="1" parent="41mGn1arPXy_OmCfDIUA-46">
          <mxGeometry width="720" height="40" as="geometry" />
        </mxCell>
        <mxCell id="41mGn1arPXy_OmCfDIUA-48" value="&lt;font style=&quot;font-size: 18px;&quot; face=&quot;Comic Sans MS&quot;&gt;&lt;b&gt;item&lt;/b&gt;&lt;/font&gt;" style="shape=partialRectangle;html=1;whiteSpace=wrap;connectable=0;overflow=hidden;fillColor=none;top=0;left=0;bottom=0;right=0;pointerEvents=1;" vertex="1" parent="41mGn1arPXy_OmCfDIUA-47">
          <mxGeometry width="60" height="40" as="geometry">
            <mxRectangle width="60" height="40" as="alternateBounds" />
          </mxGeometry>
        </mxCell>
        <mxCell id="41mGn1arPXy_OmCfDIUA-49" value="&lt;b style=&quot;font-family: &amp;quot;Comic Sans MS&amp;quot;; font-size: 18px;&quot;&gt;item&lt;/b&gt;" style="shape=partialRectangle;html=1;whiteSpace=wrap;connectable=0;overflow=hidden;fillColor=none;top=0;left=0;bottom=0;right=0;pointerEvents=1;" vertex="1" parent="41mGn1arPXy_OmCfDIUA-47">
          <mxGeometry x="60" width="60" height="40" as="geometry">
            <mxRectangle width="60" height="40" as="alternateBounds" />
          </mxGeometry>
        </mxCell>
        <mxCell id="41mGn1arPXy_OmCfDIUA-50" value="&lt;b style=&quot;font-family: &amp;quot;Comic Sans MS&amp;quot;; font-size: 18px;&quot;&gt;item&lt;/b&gt;" style="shape=partialRectangle;html=1;whiteSpace=wrap;connectable=0;overflow=hidden;fillColor=none;top=0;left=0;bottom=0;right=0;pointerEvents=1;" vertex="1" parent="41mGn1arPXy_OmCfDIUA-47">
          <mxGeometry x="120" width="60" height="40" as="geometry">
            <mxRectangle width="60" height="40" as="alternateBounds" />
          </mxGeometry>
        </mxCell>
        <mxCell id="41mGn1arPXy_OmCfDIUA-51" value="&lt;b style=&quot;font-family: &amp;quot;Comic Sans MS&amp;quot;; font-size: 18px;&quot;&gt;item&lt;/b&gt;" style="shape=partialRectangle;html=1;whiteSpace=wrap;connectable=0;overflow=hidden;fillColor=none;top=0;left=0;bottom=0;right=0;pointerEvents=1;" vertex="1" parent="41mGn1arPXy_OmCfDIUA-47">
          <mxGeometry x="180" width="60" height="40" as="geometry">
            <mxRectangle width="60" height="40" as="alternateBounds" />
          </mxGeometry>
        </mxCell>
        <mxCell id="41mGn1arPXy_OmCfDIUA-52" value="&lt;b style=&quot;font-family: &amp;quot;Comic Sans MS&amp;quot;; font-size: 18px;&quot;&gt;item&lt;/b&gt;" style="shape=partialRectangle;html=1;whiteSpace=wrap;connectable=0;overflow=hidden;fillColor=none;top=0;left=0;bottom=0;right=0;pointerEvents=1;" vertex="1" parent="41mGn1arPXy_OmCfDIUA-47">
          <mxGeometry x="240" width="60" height="40" as="geometry">
            <mxRectangle width="60" height="40" as="alternateBounds" />
          </mxGeometry>
        </mxCell>
        <mxCell id="41mGn1arPXy_OmCfDIUA-53" value="&lt;b style=&quot;font-family: &amp;quot;Comic Sans MS&amp;quot;; font-size: 18px;&quot;&gt;item&lt;/b&gt;" style="shape=partialRectangle;html=1;whiteSpace=wrap;connectable=0;overflow=hidden;fillColor=none;top=0;left=0;bottom=0;right=0;pointerEvents=1;" vertex="1" parent="41mGn1arPXy_OmCfDIUA-47">
          <mxGeometry x="300" width="60" height="40" as="geometry">
            <mxRectangle width="60" height="40" as="alternateBounds" />
          </mxGeometry>
        </mxCell>
        <mxCell id="41mGn1arPXy_OmCfDIUA-54" value="" style="shape=partialRectangle;html=1;whiteSpace=wrap;connectable=0;overflow=hidden;fillColor=none;top=0;left=0;bottom=0;right=0;pointerEvents=1;" vertex="1" parent="41mGn1arPXy_OmCfDIUA-47">
          <mxGeometry x="360" width="60" height="40" as="geometry">
            <mxRectangle width="60" height="40" as="alternateBounds" />
          </mxGeometry>
        </mxCell>
        <mxCell id="41mGn1arPXy_OmCfDIUA-55" value="" style="shape=partialRectangle;html=1;whiteSpace=wrap;connectable=0;overflow=hidden;fillColor=none;top=0;left=0;bottom=0;right=0;pointerEvents=1;" vertex="1" parent="41mGn1arPXy_OmCfDIUA-47">
          <mxGeometry x="420" width="60" height="40" as="geometry">
            <mxRectangle width="60" height="40" as="alternateBounds" />
          </mxGeometry>
        </mxCell>
        <mxCell id="41mGn1arPXy_OmCfDIUA-56" value="" style="shape=partialRectangle;html=1;whiteSpace=wrap;connectable=0;overflow=hidden;fillColor=none;top=0;left=0;bottom=0;right=0;pointerEvents=1;" vertex="1" parent="41mGn1arPXy_OmCfDIUA-47">
          <mxGeometry x="480" width="60" height="40" as="geometry">
            <mxRectangle width="60" height="40" as="alternateBounds" />
          </mxGeometry>
        </mxCell>
        <mxCell id="41mGn1arPXy_OmCfDIUA-57" value="" style="shape=partialRectangle;html=1;whiteSpace=wrap;connectable=0;overflow=hidden;fillColor=none;top=0;left=0;bottom=0;right=0;pointerEvents=1;" vertex="1" parent="41mGn1arPXy_OmCfDIUA-47">
          <mxGeometry x="540" width="60" height="40" as="geometry">
            <mxRectangle width="60" height="40" as="alternateBounds" />
          </mxGeometry>
        </mxCell>
        <mxCell id="41mGn1arPXy_OmCfDIUA-58" value="" style="shape=partialRectangle;html=1;whiteSpace=wrap;connectable=0;overflow=hidden;fillColor=none;top=0;left=0;bottom=0;right=0;pointerEvents=1;" vertex="1" parent="41mGn1arPXy_OmCfDIUA-47">
          <mxGeometry x="600" width="60" height="40" as="geometry">
            <mxRectangle width="60" height="40" as="alternateBounds" />
          </mxGeometry>
        </mxCell>
        <mxCell id="41mGn1arPXy_OmCfDIUA-59" value="" style="shape=partialRectangle;html=1;whiteSpace=wrap;connectable=0;overflow=hidden;fillColor=none;top=0;left=0;bottom=0;right=0;pointerEvents=1;" vertex="1" parent="41mGn1arPXy_OmCfDIUA-47">
          <mxGeometry x="660" width="60" height="40" as="geometry">
            <mxRectangle width="60" height="40" as="alternateBounds" />
          </mxGeometry>
        </mxCell>
        <mxCell id="41mGn1arPXy_OmCfDIUA-60" value="&lt;font style=&quot;font-size: 18px;&quot; face=&quot;Comic Sans MS&quot;&gt;&lt;b&gt;items&lt;/b&gt;&lt;/font&gt;" style="text;html=1;strokeColor=#E1D5E7;fillColor=#E1D5E7;align=center;verticalAlign=middle;whiteSpace=wrap;rounded=1;shadow=1;" vertex="1" parent="41mGn1arPXy_OmCfDIUA-1">
          <mxGeometry y="370" width="80" height="40" as="geometry" />
        </mxCell>
        <mxCell id="41mGn1arPXy_OmCfDIUA-61" value="&lt;font style=&quot;font-size: 18px;&quot; face=&quot;Comic Sans MS&quot;&gt;&lt;b&gt;ArrayBlockingQueue&lt;/b&gt;&lt;/font&gt;" style="text;html=1;strokeColor=#E1D5E7;fillColor=#E1D5E7;align=center;verticalAlign=middle;whiteSpace=wrap;rounded=1;shadow=1;" vertex="1" parent="41mGn1arPXy_OmCfDIUA-1">
          <mxGeometry x="280" y="90" width="240" height="60" as="geometry" />
        </mxCell>
        <mxCell id="qhYaoy-yGipc-NNmI5Nn-6" style="edgeStyle=orthogonalEdgeStyle;curved=1;rounded=0;orthogonalLoop=1;jettySize=auto;html=1;fontFamily=Comic Sans MS;fontSize=18;" edge="1" parent="41mGn1arPXy_OmCfDIUA-1" source="qhYaoy-yGipc-NNmI5Nn-0">
          <mxGeometry relative="1" as="geometry">
            <mxPoint x="490" y="410" as="targetPoint" />
          </mxGeometry>
        </mxCell>
        <mxCell id="qhYaoy-yGipc-NNmI5Nn-0" value="&lt;b&gt;thread-1&lt;/b&gt;" style="ellipse;whiteSpace=wrap;html=1;rounded=1;shadow=1;strokeColor=#E1D5E7;fontFamily=Comic Sans MS;fontSize=18;fillColor=#E1D5E7;" vertex="1" parent="41mGn1arPXy_OmCfDIUA-1">
          <mxGeometry x="260" y="500" width="100" height="70" as="geometry" />
        </mxCell>
        <mxCell id="qhYaoy-yGipc-NNmI5Nn-4" style="edgeStyle=orthogonalEdgeStyle;curved=1;rounded=0;orthogonalLoop=1;jettySize=auto;html=1;fontFamily=Comic Sans MS;fontSize=18;" edge="1" parent="41mGn1arPXy_OmCfDIUA-1" source="qhYaoy-yGipc-NNmI5Nn-1">
          <mxGeometry relative="1" as="geometry">
            <mxPoint x="490" y="410" as="targetPoint" />
          </mxGeometry>
        </mxCell>
        <mxCell id="qhYaoy-yGipc-NNmI5Nn-1" value="&lt;b&gt;thread-2&lt;/b&gt;" style="ellipse;whiteSpace=wrap;html=1;rounded=1;shadow=1;strokeColor=#E1D5E7;fontFamily=Comic Sans MS;fontSize=18;fillColor=#E1D5E7;" vertex="1" parent="41mGn1arPXy_OmCfDIUA-1">
          <mxGeometry x="440" y="610" width="100" height="70" as="geometry" />
        </mxCell>
        <mxCell id="qhYaoy-yGipc-NNmI5Nn-5" style="edgeStyle=orthogonalEdgeStyle;curved=1;rounded=0;orthogonalLoop=1;jettySize=auto;html=1;fontFamily=Comic Sans MS;fontSize=18;" edge="1" parent="41mGn1arPXy_OmCfDIUA-1" source="qhYaoy-yGipc-NNmI5Nn-2">
          <mxGeometry relative="1" as="geometry">
            <mxPoint x="490" y="410" as="targetPoint" />
          </mxGeometry>
        </mxCell>
        <mxCell id="qhYaoy-yGipc-NNmI5Nn-2" value="&lt;b&gt;thread-3&lt;/b&gt;" style="ellipse;whiteSpace=wrap;html=1;rounded=1;shadow=1;strokeColor=#E1D5E7;fontFamily=Comic Sans MS;fontSize=18;fillColor=#E1D5E7;" vertex="1" parent="41mGn1arPXy_OmCfDIUA-1">
          <mxGeometry x="650" y="500" width="100" height="70" as="geometry" />
        </mxCell>
        <mxCell id="qhYaoy-yGipc-NNmI5Nn-7" value="&lt;b&gt;put&lt;/b&gt;" style="text;html=1;strokeColor=#F5F5F5;fillColor=#F5F5F5;align=center;verticalAlign=middle;whiteSpace=wrap;rounded=1;shadow=1;fontFamily=Comic Sans MS;fontSize=18;fontColor=#333333;" vertex="1" parent="41mGn1arPXy_OmCfDIUA-1">
          <mxGeometry x="384" y="460" width="46" height="30" as="geometry" />
        </mxCell>
        <mxCell id="qhYaoy-yGipc-NNmI5Nn-8" value="&lt;b&gt;put&lt;/b&gt;" style="text;html=1;strokeColor=#F5F5F5;fillColor=#F5F5F5;align=center;verticalAlign=middle;whiteSpace=wrap;rounded=1;shadow=1;fontFamily=Comic Sans MS;fontSize=18;fontColor=#333333;" vertex="1" parent="41mGn1arPXy_OmCfDIUA-1">
          <mxGeometry x="494" y="540" width="46" height="30" as="geometry" />
        </mxCell>
        <mxCell id="qhYaoy-yGipc-NNmI5Nn-9" value="&lt;b&gt;put&lt;/b&gt;" style="text;html=1;strokeColor=#F5F5F5;fillColor=#F5F5F5;align=center;verticalAlign=middle;whiteSpace=wrap;rounded=1;shadow=1;fontFamily=Comic Sans MS;fontSize=18;fontColor=#333333;" vertex="1" parent="41mGn1arPXy_OmCfDIUA-1">
          <mxGeometry x="540" y="460" width="46" height="30" as="geometry" />
        </mxCell>
        <mxCell id="qhYaoy-yGipc-NNmI5Nn-11" value="" style="shape=table;startSize=0;container=1;collapsible=0;childLayout=tableLayout;fillColor=#f5f5f5;fontColor=#333333;strokeColor=#666666;shadow=1;" vertex="1" parent="41mGn1arPXy_OmCfDIUA-1">
          <mxGeometry x="107" y="840" width="720" height="40" as="geometry" />
        </mxCell>
        <mxCell id="qhYaoy-yGipc-NNmI5Nn-12" value="" style="shape=tableRow;horizontal=0;startSize=0;swimlaneHead=0;swimlaneBody=0;top=0;left=0;bottom=0;right=0;collapsible=0;dropTarget=0;fillColor=none;points=[[0,0.5],[1,0.5]];portConstraint=eastwest;" vertex="1" parent="qhYaoy-yGipc-NNmI5Nn-11">
          <mxGeometry width="720" height="40" as="geometry" />
        </mxCell>
        <mxCell id="qhYaoy-yGipc-NNmI5Nn-13" value="&lt;font style=&quot;font-size: 18px;&quot; face=&quot;Comic Sans MS&quot;&gt;&lt;b&gt;item&lt;/b&gt;&lt;/font&gt;" style="shape=partialRectangle;html=1;whiteSpace=wrap;connectable=0;overflow=hidden;fillColor=none;top=0;left=0;bottom=0;right=0;pointerEvents=1;" vertex="1" parent="qhYaoy-yGipc-NNmI5Nn-12">
          <mxGeometry width="60" height="40" as="geometry">
            <mxRectangle width="60" height="40" as="alternateBounds" />
          </mxGeometry>
        </mxCell>
        <mxCell id="qhYaoy-yGipc-NNmI5Nn-14" value="&lt;b style=&quot;font-family: &amp;quot;Comic Sans MS&amp;quot;; font-size: 18px;&quot;&gt;item&lt;/b&gt;" style="shape=partialRectangle;html=1;whiteSpace=wrap;connectable=0;overflow=hidden;fillColor=none;top=0;left=0;bottom=0;right=0;pointerEvents=1;" vertex="1" parent="qhYaoy-yGipc-NNmI5Nn-12">
          <mxGeometry x="60" width="60" height="40" as="geometry">
            <mxRectangle width="60" height="40" as="alternateBounds" />
          </mxGeometry>
        </mxCell>
        <mxCell id="qhYaoy-yGipc-NNmI5Nn-15" value="&lt;b style=&quot;font-family: &amp;quot;Comic Sans MS&amp;quot;; font-size: 18px;&quot;&gt;item&lt;/b&gt;" style="shape=partialRectangle;html=1;whiteSpace=wrap;connectable=0;overflow=hidden;fillColor=none;top=0;left=0;bottom=0;right=0;pointerEvents=1;" vertex="1" parent="qhYaoy-yGipc-NNmI5Nn-12">
          <mxGeometry x="120" width="60" height="40" as="geometry">
            <mxRectangle width="60" height="40" as="alternateBounds" />
          </mxGeometry>
        </mxCell>
        <mxCell id="qhYaoy-yGipc-NNmI5Nn-16" value="&lt;b style=&quot;font-family: &amp;quot;Comic Sans MS&amp;quot;; font-size: 18px;&quot;&gt;item&lt;/b&gt;" style="shape=partialRectangle;html=1;whiteSpace=wrap;connectable=0;overflow=hidden;fillColor=none;top=0;left=0;bottom=0;right=0;pointerEvents=1;" vertex="1" parent="qhYaoy-yGipc-NNmI5Nn-12">
          <mxGeometry x="180" width="60" height="40" as="geometry">
            <mxRectangle width="60" height="40" as="alternateBounds" />
          </mxGeometry>
        </mxCell>
        <mxCell id="qhYaoy-yGipc-NNmI5Nn-17" value="&lt;b style=&quot;font-family: &amp;quot;Comic Sans MS&amp;quot;; font-size: 18px;&quot;&gt;item&lt;/b&gt;" style="shape=partialRectangle;html=1;whiteSpace=wrap;connectable=0;overflow=hidden;fillColor=none;top=0;left=0;bottom=0;right=0;pointerEvents=1;" vertex="1" parent="qhYaoy-yGipc-NNmI5Nn-12">
          <mxGeometry x="240" width="60" height="40" as="geometry">
            <mxRectangle width="60" height="40" as="alternateBounds" />
          </mxGeometry>
        </mxCell>
        <mxCell id="qhYaoy-yGipc-NNmI5Nn-18" value="&lt;b style=&quot;font-family: &amp;quot;Comic Sans MS&amp;quot;; font-size: 18px;&quot;&gt;item&lt;/b&gt;" style="shape=partialRectangle;html=1;whiteSpace=wrap;connectable=0;overflow=hidden;fillColor=none;top=0;left=0;bottom=0;right=0;pointerEvents=1;" vertex="1" parent="qhYaoy-yGipc-NNmI5Nn-12">
          <mxGeometry x="300" width="60" height="40" as="geometry">
            <mxRectangle width="60" height="40" as="alternateBounds" />
          </mxGeometry>
        </mxCell>
        <mxCell id="qhYaoy-yGipc-NNmI5Nn-19" value="&lt;b style=&quot;font-family: &amp;quot;Comic Sans MS&amp;quot;; font-size: 18px;&quot;&gt;item&lt;/b&gt;" style="shape=partialRectangle;html=1;whiteSpace=wrap;connectable=0;overflow=hidden;fillColor=none;top=0;left=0;bottom=0;right=0;pointerEvents=1;" vertex="1" parent="qhYaoy-yGipc-NNmI5Nn-12">
          <mxGeometry x="360" width="60" height="40" as="geometry">
            <mxRectangle width="60" height="40" as="alternateBounds" />
          </mxGeometry>
        </mxCell>
        <mxCell id="qhYaoy-yGipc-NNmI5Nn-20" value="" style="shape=partialRectangle;html=1;whiteSpace=wrap;connectable=0;overflow=hidden;fillColor=none;top=0;left=0;bottom=0;right=0;pointerEvents=1;" vertex="1" parent="qhYaoy-yGipc-NNmI5Nn-12">
          <mxGeometry x="420" width="60" height="40" as="geometry">
            <mxRectangle width="60" height="40" as="alternateBounds" />
          </mxGeometry>
        </mxCell>
        <mxCell id="qhYaoy-yGipc-NNmI5Nn-21" value="" style="shape=partialRectangle;html=1;whiteSpace=wrap;connectable=0;overflow=hidden;fillColor=none;top=0;left=0;bottom=0;right=0;pointerEvents=1;" vertex="1" parent="qhYaoy-yGipc-NNmI5Nn-12">
          <mxGeometry x="480" width="60" height="40" as="geometry">
            <mxRectangle width="60" height="40" as="alternateBounds" />
          </mxGeometry>
        </mxCell>
        <mxCell id="qhYaoy-yGipc-NNmI5Nn-22" value="" style="shape=partialRectangle;html=1;whiteSpace=wrap;connectable=0;overflow=hidden;fillColor=none;top=0;left=0;bottom=0;right=0;pointerEvents=1;" vertex="1" parent="qhYaoy-yGipc-NNmI5Nn-12">
          <mxGeometry x="540" width="60" height="40" as="geometry">
            <mxRectangle width="60" height="40" as="alternateBounds" />
          </mxGeometry>
        </mxCell>
        <mxCell id="qhYaoy-yGipc-NNmI5Nn-23" value="" style="shape=partialRectangle;html=1;whiteSpace=wrap;connectable=0;overflow=hidden;fillColor=none;top=0;left=0;bottom=0;right=0;pointerEvents=1;" vertex="1" parent="qhYaoy-yGipc-NNmI5Nn-12">
          <mxGeometry x="600" width="60" height="40" as="geometry">
            <mxRectangle width="60" height="40" as="alternateBounds" />
          </mxGeometry>
        </mxCell>
        <mxCell id="qhYaoy-yGipc-NNmI5Nn-24" value="" style="shape=partialRectangle;html=1;whiteSpace=wrap;connectable=0;overflow=hidden;fillColor=none;top=0;left=0;bottom=0;right=0;pointerEvents=1;" vertex="1" parent="qhYaoy-yGipc-NNmI5Nn-12">
          <mxGeometry x="660" width="60" height="40" as="geometry">
            <mxRectangle width="60" height="40" as="alternateBounds" />
          </mxGeometry>
        </mxCell>
        <mxCell id="qhYaoy-yGipc-NNmI5Nn-25" value="&lt;font style=&quot;font-size: 18px;&quot; face=&quot;Comic Sans MS&quot;&gt;&lt;b&gt;items&lt;/b&gt;&lt;/font&gt;" style="text;html=1;strokeColor=#E1D5E7;fillColor=#E1D5E7;align=center;verticalAlign=middle;whiteSpace=wrap;rounded=1;shadow=1;" vertex="1" parent="41mGn1arPXy_OmCfDIUA-1">
          <mxGeometry x="7" y="840" width="80" height="40" as="geometry" />
        </mxCell>
        <mxCell id="qhYaoy-yGipc-NNmI5Nn-26" style="edgeStyle=orthogonalEdgeStyle;curved=1;rounded=0;orthogonalLoop=1;jettySize=auto;html=1;fontFamily=Comic Sans MS;fontSize=18;" edge="1" parent="41mGn1arPXy_OmCfDIUA-1" source="qhYaoy-yGipc-NNmI5Nn-27">
          <mxGeometry relative="1" as="geometry">
            <mxPoint x="497" y="880" as="targetPoint" />
          </mxGeometry>
        </mxCell>
        <mxCell id="qhYaoy-yGipc-NNmI5Nn-27" value="&lt;b&gt;thread-1&lt;/b&gt;" style="ellipse;whiteSpace=wrap;html=1;rounded=1;shadow=1;strokeColor=#E1D5E7;fontFamily=Comic Sans MS;fontSize=18;fillColor=#E1D5E7;" vertex="1" parent="41mGn1arPXy_OmCfDIUA-1">
          <mxGeometry x="267" y="970" width="100" height="70" as="geometry" />
        </mxCell>
        <mxCell id="qhYaoy-yGipc-NNmI5Nn-28" style="edgeStyle=orthogonalEdgeStyle;curved=1;rounded=0;orthogonalLoop=1;jettySize=auto;html=1;fontFamily=Comic Sans MS;fontSize=18;" edge="1" parent="41mGn1arPXy_OmCfDIUA-1" source="qhYaoy-yGipc-NNmI5Nn-29">
          <mxGeometry relative="1" as="geometry">
            <mxPoint x="497" y="880" as="targetPoint" />
          </mxGeometry>
        </mxCell>
        <mxCell id="qhYaoy-yGipc-NNmI5Nn-29" value="&lt;b&gt;thread-2&lt;/b&gt;" style="ellipse;whiteSpace=wrap;html=1;rounded=1;shadow=1;strokeColor=#E1D5E7;fontFamily=Comic Sans MS;fontSize=18;fillColor=#E1D5E7;" vertex="1" parent="41mGn1arPXy_OmCfDIUA-1">
          <mxGeometry x="447" y="1080" width="100" height="70" as="geometry" />
        </mxCell>
        <mxCell id="qhYaoy-yGipc-NNmI5Nn-30" style="edgeStyle=orthogonalEdgeStyle;curved=1;rounded=0;orthogonalLoop=1;jettySize=auto;html=1;fontFamily=Comic Sans MS;fontSize=18;" edge="1" parent="41mGn1arPXy_OmCfDIUA-1" source="qhYaoy-yGipc-NNmI5Nn-31">
          <mxGeometry relative="1" as="geometry">
            <mxPoint x="497" y="880" as="targetPoint" />
          </mxGeometry>
        </mxCell>
        <mxCell id="qhYaoy-yGipc-NNmI5Nn-31" value="&lt;b&gt;thread-3&lt;/b&gt;" style="ellipse;whiteSpace=wrap;html=1;rounded=1;shadow=1;strokeColor=#E1D5E7;fontFamily=Comic Sans MS;fontSize=18;fillColor=#E1D5E7;" vertex="1" parent="41mGn1arPXy_OmCfDIUA-1">
          <mxGeometry x="657" y="970" width="100" height="70" as="geometry" />
        </mxCell>
        <mxCell id="qhYaoy-yGipc-NNmI5Nn-32" value="&lt;b&gt;take&lt;/b&gt;" style="text;html=1;strokeColor=#F5F5F5;fillColor=#F5F5F5;align=center;verticalAlign=middle;whiteSpace=wrap;rounded=1;shadow=1;fontFamily=Comic Sans MS;fontSize=18;fontColor=#333333;" vertex="1" parent="41mGn1arPXy_OmCfDIUA-1">
          <mxGeometry x="391" y="930" width="46" height="30" as="geometry" />
        </mxCell>
        <mxCell id="qhYaoy-yGipc-NNmI5Nn-35" value="&lt;b&gt;take&lt;/b&gt;" style="text;html=1;strokeColor=#F5F5F5;fillColor=#F5F5F5;align=center;verticalAlign=middle;whiteSpace=wrap;rounded=1;shadow=1;fontFamily=Comic Sans MS;fontSize=18;fontColor=#333333;" vertex="1" parent="41mGn1arPXy_OmCfDIUA-1">
          <mxGeometry x="570" y="930" width="46" height="30" as="geometry" />
        </mxCell>
        <mxCell id="qhYaoy-yGipc-NNmI5Nn-36" value="&lt;b&gt;take&lt;/b&gt;" style="text;html=1;strokeColor=#F5F5F5;fillColor=#F5F5F5;align=center;verticalAlign=middle;whiteSpace=wrap;rounded=1;shadow=1;fontFamily=Comic Sans MS;fontSize=18;fontColor=#333333;" vertex="1" parent="41mGn1arPXy_OmCfDIUA-1">
          <mxGeometry x="510" y="1020" width="46" height="30" as="geometry" />
        </mxCell>
      </root>
    </mxGraphModel>
  </diagram>
  <diagram id="eZvId-GgA3esoJJh0QRC" name="notFull">
    <mxGraphModel dx="1038" dy="547" grid="1" gridSize="10" guides="1" tooltips="1" connect="1" arrows="1" fold="1" page="1" pageScale="1" pageWidth="827" pageHeight="1169" background="#EEEEEE" math="0" shadow="0">
      <root>
        <mxCell id="0" />
        <mxCell id="1" parent="0" />
        <mxCell id="h3_sqIkSSE7t-pCDeNyI-34" value="" style="shape=table;startSize=0;container=1;collapsible=0;childLayout=tableLayout;shadow=1;sketch=0;strokeColor=#6D1F00;fontColor=#ffffff;fillColor=#a0522d;" parent="1" vertex="1">
          <mxGeometry x="140" y="600" width="60" height="40" as="geometry" />
        </mxCell>
        <mxCell id="h3_sqIkSSE7t-pCDeNyI-35" value="" style="shape=tableRow;horizontal=0;startSize=0;swimlaneHead=0;swimlaneBody=0;top=0;left=0;bottom=0;right=0;collapsible=0;dropTarget=0;fillColor=none;points=[[0,0.5],[1,0.5]];portConstraint=eastwest;shadow=1;sketch=0;strokeColor=#909090;fontColor=#1A1A1A;" parent="h3_sqIkSSE7t-pCDeNyI-34" vertex="1">
          <mxGeometry width="60" height="40" as="geometry" />
        </mxCell>
        <mxCell id="h3_sqIkSSE7t-pCDeNyI-36" value="" style="shape=partialRectangle;html=1;whiteSpace=wrap;connectable=0;overflow=hidden;fillColor=none;top=0;left=0;bottom=0;right=0;pointerEvents=1;shadow=1;sketch=0;strokeColor=#909090;fontColor=#1A1A1A;" parent="h3_sqIkSSE7t-pCDeNyI-35" vertex="1">
          <mxGeometry width="60" height="40" as="geometry">
            <mxRectangle width="60" height="40" as="alternateBounds" />
          </mxGeometry>
        </mxCell>
        <mxCell id="h3_sqIkSSE7t-pCDeNyI-37" value="" style="shape=table;startSize=0;container=1;collapsible=0;childLayout=tableLayout;shadow=1;sketch=0;strokeColor=#6D1F00;fontColor=#ffffff;fillColor=#a0522d;" parent="1" vertex="1">
          <mxGeometry x="340" y="600" width="60" height="40" as="geometry" />
        </mxCell>
        <mxCell id="h3_sqIkSSE7t-pCDeNyI-38" value="" style="shape=tableRow;horizontal=0;startSize=0;swimlaneHead=0;swimlaneBody=0;top=0;left=0;bottom=0;right=0;collapsible=0;dropTarget=0;fillColor=none;points=[[0,0.5],[1,0.5]];portConstraint=eastwest;shadow=1;sketch=0;strokeColor=#909090;fontColor=#1A1A1A;" parent="h3_sqIkSSE7t-pCDeNyI-37" vertex="1">
          <mxGeometry width="60" height="40" as="geometry" />
        </mxCell>
        <mxCell id="h3_sqIkSSE7t-pCDeNyI-39" value="" style="shape=partialRectangle;html=1;whiteSpace=wrap;connectable=0;overflow=hidden;fillColor=none;top=0;left=0;bottom=0;right=0;pointerEvents=1;shadow=1;sketch=0;strokeColor=#909090;fontColor=#1A1A1A;" parent="h3_sqIkSSE7t-pCDeNyI-38" vertex="1">
          <mxGeometry width="60" height="40" as="geometry">
            <mxRectangle width="60" height="40" as="alternateBounds" />
          </mxGeometry>
        </mxCell>
        <mxCell id="h3_sqIkSSE7t-pCDeNyI-40" style="edgeStyle=orthogonalEdgeStyle;rounded=0;orthogonalLoop=1;jettySize=auto;html=1;entryX=0;entryY=0.5;entryDx=0;entryDy=0;strokeColor=#000000;fontColor=#1A1A1A;" parent="1" source="h3_sqIkSSE7t-pCDeNyI-35" target="h3_sqIkSSE7t-pCDeNyI-38" edge="1">
          <mxGeometry relative="1" as="geometry" />
        </mxCell>
        <mxCell id="h3_sqIkSSE7t-pCDeNyI-45" style="edgeStyle=orthogonalEdgeStyle;rounded=0;orthogonalLoop=1;jettySize=auto;html=1;entryX=0;entryY=0.5;entryDx=0;entryDy=0;strokeColor=#000000;fontColor=#1A1A1A;" parent="1" target="h3_sqIkSSE7t-pCDeNyI-43" edge="1">
          <mxGeometry relative="1" as="geometry">
            <mxPoint x="400" y="620" as="sourcePoint" />
          </mxGeometry>
        </mxCell>
        <mxCell id="h3_sqIkSSE7t-pCDeNyI-47" value="" style="shape=table;startSize=0;container=1;collapsible=0;childLayout=tableLayout;shadow=1;sketch=0;strokeColor=#6D1F00;fontColor=#ffffff;fillColor=#a0522d;" parent="1" vertex="1">
          <mxGeometry x="723" y="600" width="60" height="40" as="geometry" />
        </mxCell>
        <mxCell id="h3_sqIkSSE7t-pCDeNyI-48" value="" style="shape=tableRow;horizontal=0;startSize=0;swimlaneHead=0;swimlaneBody=0;top=0;left=0;bottom=0;right=0;collapsible=0;dropTarget=0;fillColor=none;points=[[0,0.5],[1,0.5]];portConstraint=eastwest;shadow=1;sketch=0;strokeColor=#909090;fontColor=#1A1A1A;" parent="h3_sqIkSSE7t-pCDeNyI-47" vertex="1">
          <mxGeometry width="60" height="40" as="geometry" />
        </mxCell>
        <mxCell id="h3_sqIkSSE7t-pCDeNyI-49" value="" style="shape=partialRectangle;html=1;whiteSpace=wrap;connectable=0;overflow=hidden;fillColor=none;top=0;left=0;bottom=0;right=0;pointerEvents=1;shadow=1;sketch=0;strokeColor=#909090;fontColor=#1A1A1A;" parent="h3_sqIkSSE7t-pCDeNyI-48" vertex="1">
          <mxGeometry width="60" height="40" as="geometry">
            <mxRectangle width="60" height="40" as="alternateBounds" />
          </mxGeometry>
        </mxCell>
        <mxCell id="h3_sqIkSSE7t-pCDeNyI-50" style="edgeStyle=orthogonalEdgeStyle;rounded=0;orthogonalLoop=1;jettySize=auto;html=1;entryX=0;entryY=0.5;entryDx=0;entryDy=0;strokeColor=#000000;fontColor=#1A1A1A;startArrow=none;" parent="1" source="h3_sqIkSSE7t-pCDeNyI-42" target="h3_sqIkSSE7t-pCDeNyI-48" edge="1">
          <mxGeometry relative="1" as="geometry">
            <mxPoint x="520" y="620" as="sourcePoint" />
          </mxGeometry>
        </mxCell>
        <mxCell id="h3_sqIkSSE7t-pCDeNyI-52" style="edgeStyle=orthogonalEdgeStyle;curved=1;rounded=0;orthogonalLoop=1;jettySize=auto;html=1;entryX=0.5;entryY=0;entryDx=0;entryDy=0;entryPerimeter=0;strokeColor=#000000;fontFamily=Comic Sans MS;fontSize=18;fontColor=#1A1A1A;" parent="1" source="h3_sqIkSSE7t-pCDeNyI-53" edge="1">
          <mxGeometry relative="1" as="geometry">
            <mxPoint x="170" y="600" as="targetPoint" />
          </mxGeometry>
        </mxCell>
        <mxCell id="h3_sqIkSSE7t-pCDeNyI-53" value="&lt;font style=&quot;font-size: 18px;&quot; face=&quot;Comic Sans MS&quot;&gt;&lt;b&gt;firstWaiter&lt;/b&gt;&lt;/font&gt;" style="text;html=1;strokeColor=#E3C800;fillColor=#E3C800;align=center;verticalAlign=middle;whiteSpace=wrap;rounded=1;shadow=1;sketch=0;fontColor=#000000;" parent="1" vertex="1">
          <mxGeometry x="100" y="510" width="140" height="40" as="geometry" />
        </mxCell>
        <mxCell id="h3_sqIkSSE7t-pCDeNyI-54" style="edgeStyle=orthogonalEdgeStyle;curved=1;rounded=0;orthogonalLoop=1;jettySize=auto;html=1;entryX=0.5;entryY=0;entryDx=0;entryDy=0;entryPerimeter=0;strokeColor=#000000;fontFamily=Comic Sans MS;fontSize=18;fontColor=#1A1A1A;" parent="1" source="h3_sqIkSSE7t-pCDeNyI-55" edge="1">
          <mxGeometry relative="1" as="geometry">
            <mxPoint x="750" y="600" as="targetPoint" />
          </mxGeometry>
        </mxCell>
        <mxCell id="h3_sqIkSSE7t-pCDeNyI-55" value="&lt;font style=&quot;font-size: 18px;&quot; face=&quot;Comic Sans MS&quot;&gt;&lt;b&gt;lastWaiter&lt;/b&gt;&lt;/font&gt;" style="text;html=1;strokeColor=#E3C800;fillColor=#e3c800;align=center;verticalAlign=middle;whiteSpace=wrap;rounded=1;shadow=1;sketch=0;fontColor=#000000;" parent="1" vertex="1">
          <mxGeometry x="680" y="510" width="140" height="40" as="geometry" />
        </mxCell>
        <mxCell id="h3_sqIkSSE7t-pCDeNyI-57" value="&lt;b&gt;nextWaiter&lt;/b&gt;" style="rounded=1;whiteSpace=wrap;html=1;shadow=1;sketch=0;strokeColor=#6D8764;fontFamily=Comic Sans MS;fontSize=18;fontColor=#ffffff;fillColor=#6D8764;" parent="1" vertex="1">
          <mxGeometry x="220" y="570" width="110" height="40" as="geometry" />
        </mxCell>
        <mxCell id="h3_sqIkSSE7t-pCDeNyI-61" value="&lt;b&gt;notFull&lt;br&gt;&lt;/b&gt;" style="text;html=1;strokeColor=#76608A;fillColor=#76608A;align=center;verticalAlign=middle;whiteSpace=wrap;rounded=1;shadow=1;sketch=0;fontFamily=Comic Sans MS;fontSize=18;fontColor=#ffffff;" parent="1" vertex="1">
          <mxGeometry y="585" width="100" height="55" as="geometry" />
        </mxCell>
        <mxCell id="h3_sqIkSSE7t-pCDeNyI-42" value="" style="shape=table;startSize=0;container=1;collapsible=0;childLayout=tableLayout;shadow=1;sketch=0;strokeColor=#6D1F00;fontColor=#ffffff;fillColor=#a0522d;" parent="1" vertex="1">
          <mxGeometry x="510" y="600" width="60" height="40" as="geometry" />
        </mxCell>
        <mxCell id="h3_sqIkSSE7t-pCDeNyI-43" value="" style="shape=tableRow;horizontal=0;startSize=0;swimlaneHead=0;swimlaneBody=0;top=0;left=0;bottom=0;right=0;collapsible=0;dropTarget=0;fillColor=none;points=[[0,0.5],[1,0.5]];portConstraint=eastwest;shadow=1;sketch=0;strokeColor=#909090;fontColor=#1A1A1A;" parent="h3_sqIkSSE7t-pCDeNyI-42" vertex="1">
          <mxGeometry width="60" height="40" as="geometry" />
        </mxCell>
        <mxCell id="h3_sqIkSSE7t-pCDeNyI-44" value="" style="shape=partialRectangle;html=1;whiteSpace=wrap;connectable=0;overflow=hidden;fillColor=none;top=0;left=0;bottom=0;right=0;pointerEvents=1;shadow=1;sketch=0;strokeColor=#909090;fontColor=#1A1A1A;" parent="h3_sqIkSSE7t-pCDeNyI-43" vertex="1">
          <mxGeometry width="60" height="40" as="geometry">
            <mxRectangle width="60" height="40" as="alternateBounds" />
          </mxGeometry>
        </mxCell>
        <mxCell id="PUEWY2lsMj4qoTqj3hfZ-1" value="" style="edgeStyle=orthogonalEdgeStyle;rounded=0;orthogonalLoop=1;jettySize=auto;html=1;entryX=0;entryY=0.5;entryDx=0;entryDy=0;strokeColor=#000000;fontColor=#1A1A1A;endArrow=none;" parent="1" target="h3_sqIkSSE7t-pCDeNyI-42" edge="1">
          <mxGeometry relative="1" as="geometry">
            <mxPoint x="520" y="620" as="sourcePoint" />
            <mxPoint x="670" y="620" as="targetPoint" />
          </mxGeometry>
        </mxCell>
        <mxCell id="4M1qzN5GCRBZpVA1fQVL-23" value="" style="shape=table;startSize=0;container=1;collapsible=0;childLayout=tableLayout;fillColor=#f5f5f5;fontColor=#333333;strokeColor=#666666;shadow=1;" vertex="1" parent="1">
          <mxGeometry x="100" y="370" width="720" height="40" as="geometry" />
        </mxCell>
        <mxCell id="4M1qzN5GCRBZpVA1fQVL-24" value="" style="shape=tableRow;horizontal=0;startSize=0;swimlaneHead=0;swimlaneBody=0;top=0;left=0;bottom=0;right=0;collapsible=0;dropTarget=0;fillColor=none;points=[[0,0.5],[1,0.5]];portConstraint=eastwest;" vertex="1" parent="4M1qzN5GCRBZpVA1fQVL-23">
          <mxGeometry width="720" height="40" as="geometry" />
        </mxCell>
        <mxCell id="4M1qzN5GCRBZpVA1fQVL-25" value="&lt;font style=&quot;font-size: 18px;&quot; face=&quot;Comic Sans MS&quot;&gt;&lt;b&gt;item&lt;/b&gt;&lt;/font&gt;" style="shape=partialRectangle;html=1;whiteSpace=wrap;connectable=0;overflow=hidden;fillColor=none;top=0;left=0;bottom=0;right=0;pointerEvents=1;" vertex="1" parent="4M1qzN5GCRBZpVA1fQVL-24">
          <mxGeometry width="60" height="40" as="geometry">
            <mxRectangle width="60" height="40" as="alternateBounds" />
          </mxGeometry>
        </mxCell>
        <mxCell id="4M1qzN5GCRBZpVA1fQVL-26" value="&lt;b style=&quot;font-family: &amp;quot;Comic Sans MS&amp;quot;; font-size: 18px;&quot;&gt;item&lt;/b&gt;" style="shape=partialRectangle;html=1;whiteSpace=wrap;connectable=0;overflow=hidden;fillColor=none;top=0;left=0;bottom=0;right=0;pointerEvents=1;" vertex="1" parent="4M1qzN5GCRBZpVA1fQVL-24">
          <mxGeometry x="60" width="60" height="40" as="geometry">
            <mxRectangle width="60" height="40" as="alternateBounds" />
          </mxGeometry>
        </mxCell>
        <mxCell id="4M1qzN5GCRBZpVA1fQVL-27" value="&lt;b style=&quot;font-family: &amp;quot;Comic Sans MS&amp;quot;; font-size: 18px;&quot;&gt;item&lt;/b&gt;" style="shape=partialRectangle;html=1;whiteSpace=wrap;connectable=0;overflow=hidden;fillColor=none;top=0;left=0;bottom=0;right=0;pointerEvents=1;" vertex="1" parent="4M1qzN5GCRBZpVA1fQVL-24">
          <mxGeometry x="120" width="60" height="40" as="geometry">
            <mxRectangle width="60" height="40" as="alternateBounds" />
          </mxGeometry>
        </mxCell>
        <mxCell id="4M1qzN5GCRBZpVA1fQVL-28" value="&lt;b style=&quot;font-family: &amp;quot;Comic Sans MS&amp;quot;; font-size: 18px;&quot;&gt;item&lt;/b&gt;" style="shape=partialRectangle;html=1;whiteSpace=wrap;connectable=0;overflow=hidden;fillColor=none;top=0;left=0;bottom=0;right=0;pointerEvents=1;" vertex="1" parent="4M1qzN5GCRBZpVA1fQVL-24">
          <mxGeometry x="180" width="60" height="40" as="geometry">
            <mxRectangle width="60" height="40" as="alternateBounds" />
          </mxGeometry>
        </mxCell>
        <mxCell id="4M1qzN5GCRBZpVA1fQVL-29" value="&lt;b style=&quot;font-family: &amp;quot;Comic Sans MS&amp;quot;; font-size: 18px;&quot;&gt;item&lt;/b&gt;" style="shape=partialRectangle;html=1;whiteSpace=wrap;connectable=0;overflow=hidden;fillColor=none;top=0;left=0;bottom=0;right=0;pointerEvents=1;" vertex="1" parent="4M1qzN5GCRBZpVA1fQVL-24">
          <mxGeometry x="240" width="60" height="40" as="geometry">
            <mxRectangle width="60" height="40" as="alternateBounds" />
          </mxGeometry>
        </mxCell>
        <mxCell id="4M1qzN5GCRBZpVA1fQVL-30" value="&lt;b style=&quot;font-family: &amp;quot;Comic Sans MS&amp;quot;; font-size: 18px;&quot;&gt;item&lt;/b&gt;" style="shape=partialRectangle;html=1;whiteSpace=wrap;connectable=0;overflow=hidden;fillColor=none;top=0;left=0;bottom=0;right=0;pointerEvents=1;" vertex="1" parent="4M1qzN5GCRBZpVA1fQVL-24">
          <mxGeometry x="300" width="60" height="40" as="geometry">
            <mxRectangle width="60" height="40" as="alternateBounds" />
          </mxGeometry>
        </mxCell>
        <mxCell id="4M1qzN5GCRBZpVA1fQVL-31" value="&lt;b style=&quot;font-family: &amp;quot;Comic Sans MS&amp;quot;; font-size: 18px;&quot;&gt;item&lt;/b&gt;" style="shape=partialRectangle;html=1;whiteSpace=wrap;connectable=0;overflow=hidden;fillColor=none;top=0;left=0;bottom=0;right=0;pointerEvents=1;" vertex="1" parent="4M1qzN5GCRBZpVA1fQVL-24">
          <mxGeometry x="360" width="60" height="40" as="geometry">
            <mxRectangle width="60" height="40" as="alternateBounds" />
          </mxGeometry>
        </mxCell>
        <mxCell id="4M1qzN5GCRBZpVA1fQVL-32" value="&lt;b style=&quot;font-family: &amp;quot;Comic Sans MS&amp;quot;; font-size: 18px;&quot;&gt;item&lt;/b&gt;" style="shape=partialRectangle;html=1;whiteSpace=wrap;connectable=0;overflow=hidden;fillColor=none;top=0;left=0;bottom=0;right=0;pointerEvents=1;" vertex="1" parent="4M1qzN5GCRBZpVA1fQVL-24">
          <mxGeometry x="420" width="60" height="40" as="geometry">
            <mxRectangle width="60" height="40" as="alternateBounds" />
          </mxGeometry>
        </mxCell>
        <mxCell id="4M1qzN5GCRBZpVA1fQVL-33" value="&lt;b style=&quot;font-family: &amp;quot;Comic Sans MS&amp;quot;; font-size: 18px;&quot;&gt;item&lt;/b&gt;" style="shape=partialRectangle;html=1;whiteSpace=wrap;connectable=0;overflow=hidden;fillColor=none;top=0;left=0;bottom=0;right=0;pointerEvents=1;" vertex="1" parent="4M1qzN5GCRBZpVA1fQVL-24">
          <mxGeometry x="480" width="60" height="40" as="geometry">
            <mxRectangle width="60" height="40" as="alternateBounds" />
          </mxGeometry>
        </mxCell>
        <mxCell id="4M1qzN5GCRBZpVA1fQVL-34" value="&lt;b style=&quot;font-family: &amp;quot;Comic Sans MS&amp;quot;; font-size: 18px;&quot;&gt;item&lt;/b&gt;" style="shape=partialRectangle;html=1;whiteSpace=wrap;connectable=0;overflow=hidden;fillColor=none;top=0;left=0;bottom=0;right=0;pointerEvents=1;" vertex="1" parent="4M1qzN5GCRBZpVA1fQVL-24">
          <mxGeometry x="540" width="60" height="40" as="geometry">
            <mxRectangle width="60" height="40" as="alternateBounds" />
          </mxGeometry>
        </mxCell>
        <mxCell id="4M1qzN5GCRBZpVA1fQVL-35" value="&lt;b style=&quot;font-family: &amp;quot;Comic Sans MS&amp;quot;; font-size: 18px;&quot;&gt;item&lt;/b&gt;" style="shape=partialRectangle;html=1;whiteSpace=wrap;connectable=0;overflow=hidden;fillColor=none;top=0;left=0;bottom=0;right=0;pointerEvents=1;" vertex="1" parent="4M1qzN5GCRBZpVA1fQVL-24">
          <mxGeometry x="600" width="60" height="40" as="geometry">
            <mxRectangle width="60" height="40" as="alternateBounds" />
          </mxGeometry>
        </mxCell>
        <mxCell id="4M1qzN5GCRBZpVA1fQVL-36" value="&lt;b style=&quot;font-family: &amp;quot;Comic Sans MS&amp;quot;; font-size: 18px;&quot;&gt;item&lt;/b&gt;" style="shape=partialRectangle;html=1;whiteSpace=wrap;connectable=0;overflow=hidden;fillColor=none;top=0;left=0;bottom=0;right=0;pointerEvents=1;" vertex="1" parent="4M1qzN5GCRBZpVA1fQVL-24">
          <mxGeometry x="660" width="60" height="40" as="geometry">
            <mxRectangle width="60" height="40" as="alternateBounds" />
          </mxGeometry>
        </mxCell>
        <mxCell id="4M1qzN5GCRBZpVA1fQVL-37" value="&lt;font style=&quot;font-size: 18px;&quot; face=&quot;Comic Sans MS&quot;&gt;&lt;b&gt;items&lt;/b&gt;&lt;/font&gt;" style="text;html=1;strokeColor=#E1D5E7;fillColor=#E1D5E7;align=center;verticalAlign=middle;whiteSpace=wrap;rounded=1;shadow=1;" vertex="1" parent="1">
          <mxGeometry y="370" width="80" height="40" as="geometry" />
        </mxCell>
        <mxCell id="4M1qzN5GCRBZpVA1fQVL-38" value="&lt;font style=&quot;font-size: 18px;&quot; face=&quot;Comic Sans MS&quot;&gt;&lt;b&gt;ArrayBlockingQueue&lt;/b&gt;&lt;/font&gt;" style="text;html=1;strokeColor=#E1D5E7;fillColor=#E1D5E7;align=center;verticalAlign=middle;whiteSpace=wrap;rounded=1;shadow=1;" vertex="1" parent="1">
          <mxGeometry x="190" y="190" width="240" height="60" as="geometry" />
        </mxCell>
      </root>
    </mxGraphModel>
  </diagram>
  <diagram name="notEmpty" id="MFw3Yz3zrneY1UlUvKgM">
    <mxGraphModel dx="1038" dy="547" grid="1" gridSize="10" guides="1" tooltips="1" connect="1" arrows="1" fold="1" page="1" pageScale="1" pageWidth="827" pageHeight="1169" background="#EEEEEE" math="0" shadow="0">
      <root>
        <mxCell id="MrJx43myqBh9xaFHGMNp-0" />
        <mxCell id="MrJx43myqBh9xaFHGMNp-1" parent="MrJx43myqBh9xaFHGMNp-0" />
        <mxCell id="MrJx43myqBh9xaFHGMNp-24" value="" style="shape=table;startSize=0;container=1;collapsible=0;childLayout=tableLayout;shadow=1;sketch=0;strokeColor=#6D1F00;fontColor=#ffffff;fillColor=#a0522d;" vertex="1" parent="MrJx43myqBh9xaFHGMNp-1">
          <mxGeometry x="140" y="670" width="60" height="40" as="geometry" />
        </mxCell>
        <mxCell id="MrJx43myqBh9xaFHGMNp-25" value="" style="shape=tableRow;horizontal=0;startSize=0;swimlaneHead=0;swimlaneBody=0;top=0;left=0;bottom=0;right=0;collapsible=0;dropTarget=0;fillColor=none;points=[[0,0.5],[1,0.5]];portConstraint=eastwest;shadow=1;sketch=0;strokeColor=#909090;fontColor=#1A1A1A;" vertex="1" parent="MrJx43myqBh9xaFHGMNp-24">
          <mxGeometry width="60" height="40" as="geometry" />
        </mxCell>
        <mxCell id="MrJx43myqBh9xaFHGMNp-26" value="" style="shape=partialRectangle;html=1;whiteSpace=wrap;connectable=0;overflow=hidden;fillColor=none;top=0;left=0;bottom=0;right=0;pointerEvents=1;shadow=1;sketch=0;strokeColor=#909090;fontColor=#1A1A1A;" vertex="1" parent="MrJx43myqBh9xaFHGMNp-25">
          <mxGeometry width="60" height="40" as="geometry">
            <mxRectangle width="60" height="40" as="alternateBounds" />
          </mxGeometry>
        </mxCell>
        <mxCell id="MrJx43myqBh9xaFHGMNp-27" value="" style="shape=table;startSize=0;container=1;collapsible=0;childLayout=tableLayout;shadow=1;sketch=0;strokeColor=#6D1F00;fontColor=#ffffff;fillColor=#a0522d;" vertex="1" parent="MrJx43myqBh9xaFHGMNp-1">
          <mxGeometry x="340" y="670" width="60" height="40" as="geometry" />
        </mxCell>
        <mxCell id="MrJx43myqBh9xaFHGMNp-28" value="" style="shape=tableRow;horizontal=0;startSize=0;swimlaneHead=0;swimlaneBody=0;top=0;left=0;bottom=0;right=0;collapsible=0;dropTarget=0;fillColor=none;points=[[0,0.5],[1,0.5]];portConstraint=eastwest;shadow=1;sketch=0;strokeColor=#909090;fontColor=#1A1A1A;" vertex="1" parent="MrJx43myqBh9xaFHGMNp-27">
          <mxGeometry width="60" height="40" as="geometry" />
        </mxCell>
        <mxCell id="MrJx43myqBh9xaFHGMNp-29" value="" style="shape=partialRectangle;html=1;whiteSpace=wrap;connectable=0;overflow=hidden;fillColor=none;top=0;left=0;bottom=0;right=0;pointerEvents=1;shadow=1;sketch=0;strokeColor=#909090;fontColor=#1A1A1A;" vertex="1" parent="MrJx43myqBh9xaFHGMNp-28">
          <mxGeometry width="60" height="40" as="geometry">
            <mxRectangle width="60" height="40" as="alternateBounds" />
          </mxGeometry>
        </mxCell>
        <mxCell id="MrJx43myqBh9xaFHGMNp-30" style="edgeStyle=orthogonalEdgeStyle;rounded=0;orthogonalLoop=1;jettySize=auto;html=1;entryX=0;entryY=0.5;entryDx=0;entryDy=0;strokeColor=#000000;fontColor=#1A1A1A;" edge="1" parent="MrJx43myqBh9xaFHGMNp-1" source="MrJx43myqBh9xaFHGMNp-25" target="MrJx43myqBh9xaFHGMNp-28">
          <mxGeometry relative="1" as="geometry" />
        </mxCell>
        <mxCell id="MrJx43myqBh9xaFHGMNp-31" style="edgeStyle=orthogonalEdgeStyle;rounded=0;orthogonalLoop=1;jettySize=auto;html=1;entryX=0;entryY=0.5;entryDx=0;entryDy=0;strokeColor=#000000;fontColor=#1A1A1A;" edge="1" parent="MrJx43myqBh9xaFHGMNp-1" target="MrJx43myqBh9xaFHGMNp-43">
          <mxGeometry relative="1" as="geometry">
            <mxPoint x="400" y="690" as="sourcePoint" />
          </mxGeometry>
        </mxCell>
        <mxCell id="MrJx43myqBh9xaFHGMNp-32" value="" style="shape=table;startSize=0;container=1;collapsible=0;childLayout=tableLayout;shadow=1;sketch=0;strokeColor=#6D1F00;fontColor=#ffffff;fillColor=#a0522d;" vertex="1" parent="MrJx43myqBh9xaFHGMNp-1">
          <mxGeometry x="723" y="670" width="60" height="40" as="geometry" />
        </mxCell>
        <mxCell id="MrJx43myqBh9xaFHGMNp-33" value="" style="shape=tableRow;horizontal=0;startSize=0;swimlaneHead=0;swimlaneBody=0;top=0;left=0;bottom=0;right=0;collapsible=0;dropTarget=0;fillColor=none;points=[[0,0.5],[1,0.5]];portConstraint=eastwest;shadow=1;sketch=0;strokeColor=#909090;fontColor=#1A1A1A;" vertex="1" parent="MrJx43myqBh9xaFHGMNp-32">
          <mxGeometry width="60" height="40" as="geometry" />
        </mxCell>
        <mxCell id="MrJx43myqBh9xaFHGMNp-34" value="" style="shape=partialRectangle;html=1;whiteSpace=wrap;connectable=0;overflow=hidden;fillColor=none;top=0;left=0;bottom=0;right=0;pointerEvents=1;shadow=1;sketch=0;strokeColor=#909090;fontColor=#1A1A1A;" vertex="1" parent="MrJx43myqBh9xaFHGMNp-33">
          <mxGeometry width="60" height="40" as="geometry">
            <mxRectangle width="60" height="40" as="alternateBounds" />
          </mxGeometry>
        </mxCell>
        <mxCell id="MrJx43myqBh9xaFHGMNp-35" style="edgeStyle=orthogonalEdgeStyle;rounded=0;orthogonalLoop=1;jettySize=auto;html=1;entryX=0;entryY=0.5;entryDx=0;entryDy=0;strokeColor=#000000;fontColor=#1A1A1A;startArrow=none;" edge="1" parent="MrJx43myqBh9xaFHGMNp-1" source="MrJx43myqBh9xaFHGMNp-42" target="MrJx43myqBh9xaFHGMNp-33">
          <mxGeometry relative="1" as="geometry">
            <mxPoint x="520" y="690" as="sourcePoint" />
          </mxGeometry>
        </mxCell>
        <mxCell id="MrJx43myqBh9xaFHGMNp-36" style="edgeStyle=orthogonalEdgeStyle;curved=1;rounded=0;orthogonalLoop=1;jettySize=auto;html=1;entryX=0.5;entryY=0;entryDx=0;entryDy=0;entryPerimeter=0;strokeColor=#000000;fontFamily=Comic Sans MS;fontSize=18;fontColor=#1A1A1A;" edge="1" parent="MrJx43myqBh9xaFHGMNp-1" source="MrJx43myqBh9xaFHGMNp-37">
          <mxGeometry relative="1" as="geometry">
            <mxPoint x="170" y="670" as="targetPoint" />
          </mxGeometry>
        </mxCell>
        <mxCell id="MrJx43myqBh9xaFHGMNp-37" value="&lt;font style=&quot;font-size: 18px;&quot; face=&quot;Comic Sans MS&quot;&gt;&lt;b&gt;firstWaiter&lt;/b&gt;&lt;/font&gt;" style="text;html=1;strokeColor=#E3C800;fillColor=#E3C800;align=center;verticalAlign=middle;whiteSpace=wrap;rounded=1;shadow=1;sketch=0;fontColor=#000000;" vertex="1" parent="MrJx43myqBh9xaFHGMNp-1">
          <mxGeometry x="100" y="580" width="140" height="40" as="geometry" />
        </mxCell>
        <mxCell id="MrJx43myqBh9xaFHGMNp-38" style="edgeStyle=orthogonalEdgeStyle;curved=1;rounded=0;orthogonalLoop=1;jettySize=auto;html=1;entryX=0.5;entryY=0;entryDx=0;entryDy=0;entryPerimeter=0;strokeColor=#000000;fontFamily=Comic Sans MS;fontSize=18;fontColor=#1A1A1A;" edge="1" parent="MrJx43myqBh9xaFHGMNp-1" source="MrJx43myqBh9xaFHGMNp-39">
          <mxGeometry relative="1" as="geometry">
            <mxPoint x="750" y="670" as="targetPoint" />
          </mxGeometry>
        </mxCell>
        <mxCell id="MrJx43myqBh9xaFHGMNp-39" value="&lt;font style=&quot;font-size: 18px;&quot; face=&quot;Comic Sans MS&quot;&gt;&lt;b&gt;lastWaiter&lt;/b&gt;&lt;/font&gt;" style="text;html=1;strokeColor=#E3C800;fillColor=#e3c800;align=center;verticalAlign=middle;whiteSpace=wrap;rounded=1;shadow=1;sketch=0;fontColor=#000000;" vertex="1" parent="MrJx43myqBh9xaFHGMNp-1">
          <mxGeometry x="680" y="580" width="140" height="40" as="geometry" />
        </mxCell>
        <mxCell id="MrJx43myqBh9xaFHGMNp-40" value="&lt;b&gt;nextWaiter&lt;/b&gt;" style="rounded=1;whiteSpace=wrap;html=1;shadow=1;sketch=0;strokeColor=#6D8764;fontFamily=Comic Sans MS;fontSize=18;fontColor=#ffffff;fillColor=#6D8764;" vertex="1" parent="MrJx43myqBh9xaFHGMNp-1">
          <mxGeometry x="220" y="640" width="110" height="40" as="geometry" />
        </mxCell>
        <mxCell id="MrJx43myqBh9xaFHGMNp-41" value="&lt;b&gt;notEmpty&lt;br&gt;&lt;/b&gt;" style="text;html=1;strokeColor=#76608A;fillColor=#76608A;align=center;verticalAlign=middle;whiteSpace=wrap;rounded=1;shadow=1;sketch=0;fontFamily=Comic Sans MS;fontSize=18;fontColor=#ffffff;" vertex="1" parent="MrJx43myqBh9xaFHGMNp-1">
          <mxGeometry y="655" width="100" height="55" as="geometry" />
        </mxCell>
        <mxCell id="MrJx43myqBh9xaFHGMNp-42" value="" style="shape=table;startSize=0;container=1;collapsible=0;childLayout=tableLayout;shadow=1;sketch=0;strokeColor=#6D1F00;fontColor=#ffffff;fillColor=#a0522d;" vertex="1" parent="MrJx43myqBh9xaFHGMNp-1">
          <mxGeometry x="510" y="670" width="60" height="40" as="geometry" />
        </mxCell>
        <mxCell id="MrJx43myqBh9xaFHGMNp-43" value="" style="shape=tableRow;horizontal=0;startSize=0;swimlaneHead=0;swimlaneBody=0;top=0;left=0;bottom=0;right=0;collapsible=0;dropTarget=0;fillColor=none;points=[[0,0.5],[1,0.5]];portConstraint=eastwest;shadow=1;sketch=0;strokeColor=#909090;fontColor=#1A1A1A;" vertex="1" parent="MrJx43myqBh9xaFHGMNp-42">
          <mxGeometry width="60" height="40" as="geometry" />
        </mxCell>
        <mxCell id="MrJx43myqBh9xaFHGMNp-44" value="" style="shape=partialRectangle;html=1;whiteSpace=wrap;connectable=0;overflow=hidden;fillColor=none;top=0;left=0;bottom=0;right=0;pointerEvents=1;shadow=1;sketch=0;strokeColor=#909090;fontColor=#1A1A1A;" vertex="1" parent="MrJx43myqBh9xaFHGMNp-43">
          <mxGeometry width="60" height="40" as="geometry">
            <mxRectangle width="60" height="40" as="alternateBounds" />
          </mxGeometry>
        </mxCell>
        <mxCell id="MrJx43myqBh9xaFHGMNp-45" value="" style="edgeStyle=orthogonalEdgeStyle;rounded=0;orthogonalLoop=1;jettySize=auto;html=1;entryX=0;entryY=0.5;entryDx=0;entryDy=0;strokeColor=#000000;fontColor=#1A1A1A;endArrow=none;" edge="1" parent="MrJx43myqBh9xaFHGMNp-1" target="MrJx43myqBh9xaFHGMNp-42">
          <mxGeometry relative="1" as="geometry">
            <mxPoint x="520" y="690" as="sourcePoint" />
            <mxPoint x="670" y="690" as="targetPoint" />
          </mxGeometry>
        </mxCell>
        <mxCell id="MrJx43myqBh9xaFHGMNp-46" value="" style="shape=table;startSize=0;container=1;collapsible=0;childLayout=tableLayout;fillColor=#f5f5f5;fontColor=#333333;strokeColor=#666666;shadow=1;" vertex="1" parent="MrJx43myqBh9xaFHGMNp-1">
          <mxGeometry x="100" y="370" width="720" height="40" as="geometry" />
        </mxCell>
        <mxCell id="MrJx43myqBh9xaFHGMNp-47" value="" style="shape=tableRow;horizontal=0;startSize=0;swimlaneHead=0;swimlaneBody=0;top=0;left=0;bottom=0;right=0;collapsible=0;dropTarget=0;fillColor=none;points=[[0,0.5],[1,0.5]];portConstraint=eastwest;" vertex="1" parent="MrJx43myqBh9xaFHGMNp-46">
          <mxGeometry width="720" height="40" as="geometry" />
        </mxCell>
        <mxCell id="MrJx43myqBh9xaFHGMNp-48" value="" style="shape=partialRectangle;html=1;whiteSpace=wrap;connectable=0;overflow=hidden;fillColor=none;top=0;left=0;bottom=0;right=0;pointerEvents=1;" vertex="1" parent="MrJx43myqBh9xaFHGMNp-47">
          <mxGeometry width="60" height="40" as="geometry">
            <mxRectangle width="60" height="40" as="alternateBounds" />
          </mxGeometry>
        </mxCell>
        <mxCell id="MrJx43myqBh9xaFHGMNp-49" value="" style="shape=partialRectangle;html=1;whiteSpace=wrap;connectable=0;overflow=hidden;fillColor=none;top=0;left=0;bottom=0;right=0;pointerEvents=1;" vertex="1" parent="MrJx43myqBh9xaFHGMNp-47">
          <mxGeometry x="60" width="60" height="40" as="geometry">
            <mxRectangle width="60" height="40" as="alternateBounds" />
          </mxGeometry>
        </mxCell>
        <mxCell id="MrJx43myqBh9xaFHGMNp-50" value="" style="shape=partialRectangle;html=1;whiteSpace=wrap;connectable=0;overflow=hidden;fillColor=none;top=0;left=0;bottom=0;right=0;pointerEvents=1;" vertex="1" parent="MrJx43myqBh9xaFHGMNp-47">
          <mxGeometry x="120" width="60" height="40" as="geometry">
            <mxRectangle width="60" height="40" as="alternateBounds" />
          </mxGeometry>
        </mxCell>
        <mxCell id="MrJx43myqBh9xaFHGMNp-51" value="" style="shape=partialRectangle;html=1;whiteSpace=wrap;connectable=0;overflow=hidden;fillColor=none;top=0;left=0;bottom=0;right=0;pointerEvents=1;" vertex="1" parent="MrJx43myqBh9xaFHGMNp-47">
          <mxGeometry x="180" width="60" height="40" as="geometry">
            <mxRectangle width="60" height="40" as="alternateBounds" />
          </mxGeometry>
        </mxCell>
        <mxCell id="MrJx43myqBh9xaFHGMNp-52" value="" style="shape=partialRectangle;html=1;whiteSpace=wrap;connectable=0;overflow=hidden;fillColor=none;top=0;left=0;bottom=0;right=0;pointerEvents=1;" vertex="1" parent="MrJx43myqBh9xaFHGMNp-47">
          <mxGeometry x="240" width="60" height="40" as="geometry">
            <mxRectangle width="60" height="40" as="alternateBounds" />
          </mxGeometry>
        </mxCell>
        <mxCell id="MrJx43myqBh9xaFHGMNp-53" value="" style="shape=partialRectangle;html=1;whiteSpace=wrap;connectable=0;overflow=hidden;fillColor=none;top=0;left=0;bottom=0;right=0;pointerEvents=1;" vertex="1" parent="MrJx43myqBh9xaFHGMNp-47">
          <mxGeometry x="300" width="60" height="40" as="geometry">
            <mxRectangle width="60" height="40" as="alternateBounds" />
          </mxGeometry>
        </mxCell>
        <mxCell id="MrJx43myqBh9xaFHGMNp-54" value="" style="shape=partialRectangle;html=1;whiteSpace=wrap;connectable=0;overflow=hidden;fillColor=none;top=0;left=0;bottom=0;right=0;pointerEvents=1;" vertex="1" parent="MrJx43myqBh9xaFHGMNp-47">
          <mxGeometry x="360" width="60" height="40" as="geometry">
            <mxRectangle width="60" height="40" as="alternateBounds" />
          </mxGeometry>
        </mxCell>
        <mxCell id="MrJx43myqBh9xaFHGMNp-55" value="" style="shape=partialRectangle;html=1;whiteSpace=wrap;connectable=0;overflow=hidden;fillColor=none;top=0;left=0;bottom=0;right=0;pointerEvents=1;" vertex="1" parent="MrJx43myqBh9xaFHGMNp-47">
          <mxGeometry x="420" width="60" height="40" as="geometry">
            <mxRectangle width="60" height="40" as="alternateBounds" />
          </mxGeometry>
        </mxCell>
        <mxCell id="MrJx43myqBh9xaFHGMNp-56" value="" style="shape=partialRectangle;html=1;whiteSpace=wrap;connectable=0;overflow=hidden;fillColor=none;top=0;left=0;bottom=0;right=0;pointerEvents=1;" vertex="1" parent="MrJx43myqBh9xaFHGMNp-47">
          <mxGeometry x="480" width="60" height="40" as="geometry">
            <mxRectangle width="60" height="40" as="alternateBounds" />
          </mxGeometry>
        </mxCell>
        <mxCell id="MrJx43myqBh9xaFHGMNp-57" value="" style="shape=partialRectangle;html=1;whiteSpace=wrap;connectable=0;overflow=hidden;fillColor=none;top=0;left=0;bottom=0;right=0;pointerEvents=1;" vertex="1" parent="MrJx43myqBh9xaFHGMNp-47">
          <mxGeometry x="540" width="60" height="40" as="geometry">
            <mxRectangle width="60" height="40" as="alternateBounds" />
          </mxGeometry>
        </mxCell>
        <mxCell id="MrJx43myqBh9xaFHGMNp-58" value="" style="shape=partialRectangle;html=1;whiteSpace=wrap;connectable=0;overflow=hidden;fillColor=none;top=0;left=0;bottom=0;right=0;pointerEvents=1;" vertex="1" parent="MrJx43myqBh9xaFHGMNp-47">
          <mxGeometry x="600" width="60" height="40" as="geometry">
            <mxRectangle width="60" height="40" as="alternateBounds" />
          </mxGeometry>
        </mxCell>
        <mxCell id="MrJx43myqBh9xaFHGMNp-59" value="" style="shape=partialRectangle;html=1;whiteSpace=wrap;connectable=0;overflow=hidden;fillColor=none;top=0;left=0;bottom=0;right=0;pointerEvents=1;" vertex="1" parent="MrJx43myqBh9xaFHGMNp-47">
          <mxGeometry x="660" width="60" height="40" as="geometry">
            <mxRectangle width="60" height="40" as="alternateBounds" />
          </mxGeometry>
        </mxCell>
        <mxCell id="MrJx43myqBh9xaFHGMNp-60" value="&lt;font style=&quot;font-size: 18px;&quot; face=&quot;Comic Sans MS&quot;&gt;&lt;b&gt;items&lt;/b&gt;&lt;/font&gt;" style="text;html=1;strokeColor=#E1D5E7;fillColor=#E1D5E7;align=center;verticalAlign=middle;whiteSpace=wrap;rounded=1;shadow=1;" vertex="1" parent="MrJx43myqBh9xaFHGMNp-1">
          <mxGeometry y="370" width="80" height="40" as="geometry" />
        </mxCell>
        <mxCell id="MrJx43myqBh9xaFHGMNp-61" value="&lt;font style=&quot;font-size: 18px;&quot; face=&quot;Comic Sans MS&quot;&gt;&lt;b&gt;ArrayBlockingQueue&lt;/b&gt;&lt;/font&gt;" style="text;html=1;strokeColor=#E1D5E7;fillColor=#E1D5E7;align=center;verticalAlign=middle;whiteSpace=wrap;rounded=1;shadow=1;" vertex="1" parent="MrJx43myqBh9xaFHGMNp-1">
          <mxGeometry x="190" y="190" width="240" height="60" as="geometry" />
        </mxCell>
      </root>
    </mxGraphModel>
  </diagram>
  <diagram name="第 2 页 的副本" id="9V7xvS3UKxGToZCsOWS7">
    <mxGraphModel dx="1038" dy="547" grid="1" gridSize="10" guides="1" tooltips="1" connect="1" arrows="1" fold="1" page="1" pageScale="1" pageWidth="827" pageHeight="1169" background="#EEEEEE" math="0" shadow="0">
      <root>
        <mxCell id="vxc2h0eWn3y-0ffUBblD-0" />
        <mxCell id="vxc2h0eWn3y-0ffUBblD-1" parent="vxc2h0eWn3y-0ffUBblD-0" />
        <mxCell id="vxc2h0eWn3y-0ffUBblD-2" value="" style="shape=table;startSize=0;container=1;collapsible=0;childLayout=tableLayout;shadow=1;sketch=0;strokeColor=#666666;fontColor=#333333;fillColor=#f5f5f5;" vertex="1" parent="vxc2h0eWn3y-0ffUBblD-1">
          <mxGeometry x="130" y="410" width="60" height="40" as="geometry" />
        </mxCell>
        <mxCell id="vxc2h0eWn3y-0ffUBblD-3" value="" style="shape=tableRow;horizontal=0;startSize=0;swimlaneHead=0;swimlaneBody=0;top=0;left=0;bottom=0;right=0;collapsible=0;dropTarget=0;fillColor=none;points=[[0,0.5],[1,0.5]];portConstraint=eastwest;shadow=1;sketch=0;strokeColor=#909090;fontColor=#1A1A1A;" vertex="1" parent="vxc2h0eWn3y-0ffUBblD-2">
          <mxGeometry width="60" height="40" as="geometry" />
        </mxCell>
        <mxCell id="vxc2h0eWn3y-0ffUBblD-4" value="" style="shape=partialRectangle;html=1;whiteSpace=wrap;connectable=0;overflow=hidden;fillColor=none;top=0;left=0;bottom=0;right=0;pointerEvents=1;shadow=1;sketch=0;strokeColor=#909090;fontColor=#1A1A1A;" vertex="1" parent="vxc2h0eWn3y-0ffUBblD-3">
          <mxGeometry width="60" height="40" as="geometry">
            <mxRectangle width="60" height="40" as="alternateBounds" />
          </mxGeometry>
        </mxCell>
        <mxCell id="vxc2h0eWn3y-0ffUBblD-5" value="" style="shape=table;startSize=0;container=1;collapsible=0;childLayout=tableLayout;shadow=1;sketch=0;strokeColor=#666666;fontColor=#333333;fillColor=#f5f5f5;" vertex="1" parent="vxc2h0eWn3y-0ffUBblD-1">
          <mxGeometry x="260" y="410" width="60" height="40" as="geometry" />
        </mxCell>
        <mxCell id="vxc2h0eWn3y-0ffUBblD-6" value="" style="shape=tableRow;horizontal=0;startSize=0;swimlaneHead=0;swimlaneBody=0;top=0;left=0;bottom=0;right=0;collapsible=0;dropTarget=0;fillColor=none;points=[[0,0.5],[1,0.5]];portConstraint=eastwest;shadow=1;sketch=0;strokeColor=#909090;fontColor=#1A1A1A;" vertex="1" parent="vxc2h0eWn3y-0ffUBblD-5">
          <mxGeometry width="60" height="40" as="geometry" />
        </mxCell>
        <mxCell id="vxc2h0eWn3y-0ffUBblD-7" value="" style="shape=partialRectangle;html=1;whiteSpace=wrap;connectable=0;overflow=hidden;fillColor=none;top=0;left=0;bottom=0;right=0;pointerEvents=1;shadow=1;sketch=0;strokeColor=#909090;fontColor=#1A1A1A;" vertex="1" parent="vxc2h0eWn3y-0ffUBblD-6">
          <mxGeometry width="60" height="40" as="geometry">
            <mxRectangle width="60" height="40" as="alternateBounds" />
          </mxGeometry>
        </mxCell>
        <mxCell id="vxc2h0eWn3y-0ffUBblD-8" style="edgeStyle=orthogonalEdgeStyle;rounded=0;orthogonalLoop=1;jettySize=auto;html=1;entryX=0;entryY=0.5;entryDx=0;entryDy=0;strokeColor=#000000;fontColor=#1A1A1A;" edge="1" parent="vxc2h0eWn3y-0ffUBblD-1" source="vxc2h0eWn3y-0ffUBblD-3" target="vxc2h0eWn3y-0ffUBblD-6">
          <mxGeometry relative="1" as="geometry" />
        </mxCell>
        <mxCell id="vxc2h0eWn3y-0ffUBblD-9" value="" style="endArrow=classic;html=1;rounded=0;strokeColor=#000000;fontColor=#1A1A1A;" edge="1" parent="vxc2h0eWn3y-0ffUBblD-1">
          <mxGeometry width="50" height="50" relative="1" as="geometry">
            <mxPoint x="260" y="440" as="sourcePoint" />
            <mxPoint x="190" y="440" as="targetPoint" />
          </mxGeometry>
        </mxCell>
        <mxCell id="vxc2h0eWn3y-0ffUBblD-10" value="" style="shape=table;startSize=0;container=1;collapsible=0;childLayout=tableLayout;shadow=1;sketch=0;strokeColor=#666666;fontColor=#333333;fillColor=#f5f5f5;" vertex="1" parent="vxc2h0eWn3y-0ffUBblD-1">
          <mxGeometry x="390" y="410" width="60" height="40" as="geometry" />
        </mxCell>
        <mxCell id="vxc2h0eWn3y-0ffUBblD-11" value="" style="shape=tableRow;horizontal=0;startSize=0;swimlaneHead=0;swimlaneBody=0;top=0;left=0;bottom=0;right=0;collapsible=0;dropTarget=0;fillColor=none;points=[[0,0.5],[1,0.5]];portConstraint=eastwest;shadow=1;sketch=0;strokeColor=#909090;fontColor=#1A1A1A;" vertex="1" parent="vxc2h0eWn3y-0ffUBblD-10">
          <mxGeometry width="60" height="40" as="geometry" />
        </mxCell>
        <mxCell id="vxc2h0eWn3y-0ffUBblD-12" value="" style="shape=partialRectangle;html=1;whiteSpace=wrap;connectable=0;overflow=hidden;fillColor=none;top=0;left=0;bottom=0;right=0;pointerEvents=1;shadow=1;sketch=0;strokeColor=#909090;fontColor=#1A1A1A;" vertex="1" parent="vxc2h0eWn3y-0ffUBblD-11">
          <mxGeometry width="60" height="40" as="geometry">
            <mxRectangle width="60" height="40" as="alternateBounds" />
          </mxGeometry>
        </mxCell>
        <mxCell id="vxc2h0eWn3y-0ffUBblD-13" style="edgeStyle=orthogonalEdgeStyle;rounded=0;orthogonalLoop=1;jettySize=auto;html=1;entryX=0;entryY=0.5;entryDx=0;entryDy=0;strokeColor=#000000;fontColor=#1A1A1A;" edge="1" parent="vxc2h0eWn3y-0ffUBblD-1" target="vxc2h0eWn3y-0ffUBblD-11">
          <mxGeometry relative="1" as="geometry">
            <mxPoint x="320" y="430" as="sourcePoint" />
          </mxGeometry>
        </mxCell>
        <mxCell id="vxc2h0eWn3y-0ffUBblD-14" value="" style="endArrow=classic;html=1;rounded=0;strokeColor=#000000;fontColor=#1A1A1A;" edge="1" parent="vxc2h0eWn3y-0ffUBblD-1">
          <mxGeometry width="50" height="50" relative="1" as="geometry">
            <mxPoint x="390" y="440" as="sourcePoint" />
            <mxPoint x="320" y="440" as="targetPoint" />
          </mxGeometry>
        </mxCell>
        <mxCell id="vxc2h0eWn3y-0ffUBblD-15" value="" style="shape=table;startSize=0;container=1;collapsible=0;childLayout=tableLayout;shadow=1;sketch=0;strokeColor=#666666;fontColor=#333333;fillColor=#f5f5f5;" vertex="1" parent="vxc2h0eWn3y-0ffUBblD-1">
          <mxGeometry x="520" y="410" width="60" height="40" as="geometry" />
        </mxCell>
        <mxCell id="vxc2h0eWn3y-0ffUBblD-16" value="" style="shape=tableRow;horizontal=0;startSize=0;swimlaneHead=0;swimlaneBody=0;top=0;left=0;bottom=0;right=0;collapsible=0;dropTarget=0;fillColor=none;points=[[0,0.5],[1,0.5]];portConstraint=eastwest;shadow=1;sketch=0;strokeColor=#909090;fontColor=#1A1A1A;" vertex="1" parent="vxc2h0eWn3y-0ffUBblD-15">
          <mxGeometry width="60" height="40" as="geometry" />
        </mxCell>
        <mxCell id="vxc2h0eWn3y-0ffUBblD-17" value="" style="shape=partialRectangle;html=1;whiteSpace=wrap;connectable=0;overflow=hidden;fillColor=none;top=0;left=0;bottom=0;right=0;pointerEvents=1;shadow=1;sketch=0;strokeColor=#909090;fontColor=#1A1A1A;" vertex="1" parent="vxc2h0eWn3y-0ffUBblD-16">
          <mxGeometry width="60" height="40" as="geometry">
            <mxRectangle width="60" height="40" as="alternateBounds" />
          </mxGeometry>
        </mxCell>
        <mxCell id="vxc2h0eWn3y-0ffUBblD-18" style="edgeStyle=orthogonalEdgeStyle;rounded=0;orthogonalLoop=1;jettySize=auto;html=1;entryX=0;entryY=0.5;entryDx=0;entryDy=0;strokeColor=#000000;fontColor=#1A1A1A;" edge="1" parent="vxc2h0eWn3y-0ffUBblD-1" target="vxc2h0eWn3y-0ffUBblD-16">
          <mxGeometry relative="1" as="geometry">
            <mxPoint x="450" y="430" as="sourcePoint" />
          </mxGeometry>
        </mxCell>
        <mxCell id="vxc2h0eWn3y-0ffUBblD-19" value="" style="endArrow=classic;html=1;rounded=0;strokeColor=#000000;fontColor=#1A1A1A;" edge="1" parent="vxc2h0eWn3y-0ffUBblD-1">
          <mxGeometry width="50" height="50" relative="1" as="geometry">
            <mxPoint x="520" y="440" as="sourcePoint" />
            <mxPoint x="450" y="440" as="targetPoint" />
          </mxGeometry>
        </mxCell>
        <mxCell id="vxc2h0eWn3y-0ffUBblD-20" value="" style="shape=table;startSize=0;container=1;collapsible=0;childLayout=tableLayout;shadow=1;sketch=0;strokeColor=#666666;fontColor=#333333;fillColor=#f5f5f5;" vertex="1" parent="vxc2h0eWn3y-0ffUBblD-1">
          <mxGeometry x="650" y="410" width="60" height="40" as="geometry" />
        </mxCell>
        <mxCell id="vxc2h0eWn3y-0ffUBblD-21" value="" style="shape=tableRow;horizontal=0;startSize=0;swimlaneHead=0;swimlaneBody=0;top=0;left=0;bottom=0;right=0;collapsible=0;dropTarget=0;fillColor=none;points=[[0,0.5],[1,0.5]];portConstraint=eastwest;shadow=1;sketch=0;strokeColor=#909090;fontColor=#1A1A1A;" vertex="1" parent="vxc2h0eWn3y-0ffUBblD-20">
          <mxGeometry width="60" height="40" as="geometry" />
        </mxCell>
        <mxCell id="vxc2h0eWn3y-0ffUBblD-22" value="" style="shape=partialRectangle;html=1;whiteSpace=wrap;connectable=0;overflow=hidden;fillColor=none;top=0;left=0;bottom=0;right=0;pointerEvents=1;shadow=1;sketch=0;strokeColor=#909090;fontColor=#1A1A1A;" vertex="1" parent="vxc2h0eWn3y-0ffUBblD-21">
          <mxGeometry width="60" height="40" as="geometry">
            <mxRectangle width="60" height="40" as="alternateBounds" />
          </mxGeometry>
        </mxCell>
        <mxCell id="vxc2h0eWn3y-0ffUBblD-23" style="edgeStyle=orthogonalEdgeStyle;rounded=0;orthogonalLoop=1;jettySize=auto;html=1;entryX=0;entryY=0.5;entryDx=0;entryDy=0;strokeColor=#000000;fontColor=#1A1A1A;" edge="1" parent="vxc2h0eWn3y-0ffUBblD-1" target="vxc2h0eWn3y-0ffUBblD-21">
          <mxGeometry relative="1" as="geometry">
            <mxPoint x="580" y="430" as="sourcePoint" />
          </mxGeometry>
        </mxCell>
        <mxCell id="vxc2h0eWn3y-0ffUBblD-24" value="" style="endArrow=classic;html=1;rounded=0;strokeColor=#000000;fontColor=#1A1A1A;" edge="1" parent="vxc2h0eWn3y-0ffUBblD-1">
          <mxGeometry width="50" height="50" relative="1" as="geometry">
            <mxPoint x="650" y="440" as="sourcePoint" />
            <mxPoint x="580" y="440" as="targetPoint" />
          </mxGeometry>
        </mxCell>
        <mxCell id="vxc2h0eWn3y-0ffUBblD-25" style="edgeStyle=orthogonalEdgeStyle;curved=1;rounded=0;orthogonalLoop=1;jettySize=auto;html=1;entryX=0.5;entryY=0;entryDx=0;entryDy=0;entryPerimeter=0;strokeColor=#000000;fontFamily=Comic Sans MS;fontSize=18;fontColor=#1A1A1A;" edge="1" parent="vxc2h0eWn3y-0ffUBblD-1" source="vxc2h0eWn3y-0ffUBblD-26" target="vxc2h0eWn3y-0ffUBblD-3">
          <mxGeometry relative="1" as="geometry" />
        </mxCell>
        <mxCell id="vxc2h0eWn3y-0ffUBblD-26" value="&lt;font style=&quot;font-size: 18px;&quot; face=&quot;Comic Sans MS&quot;&gt;&lt;b&gt;head&lt;/b&gt;&lt;/font&gt;" style="text;html=1;strokeColor=#F5F5F5;fillColor=#F5F5F5;align=center;verticalAlign=middle;whiteSpace=wrap;rounded=1;shadow=1;sketch=0;fontColor=#333333;" vertex="1" parent="vxc2h0eWn3y-0ffUBblD-1">
          <mxGeometry x="130" y="330" width="60" height="30" as="geometry" />
        </mxCell>
        <mxCell id="vxc2h0eWn3y-0ffUBblD-27" style="edgeStyle=orthogonalEdgeStyle;curved=1;rounded=0;orthogonalLoop=1;jettySize=auto;html=1;entryX=0.693;entryY=0.025;entryDx=0;entryDy=0;entryPerimeter=0;strokeColor=#000000;fontFamily=Comic Sans MS;fontSize=18;fontColor=#1A1A1A;" edge="1" parent="vxc2h0eWn3y-0ffUBblD-1" source="vxc2h0eWn3y-0ffUBblD-28">
          <mxGeometry relative="1" as="geometry">
            <mxPoint x="681.5799999999999" y="410" as="targetPoint" />
          </mxGeometry>
        </mxCell>
        <mxCell id="vxc2h0eWn3y-0ffUBblD-28" value="&lt;font style=&quot;font-size: 18px;&quot; face=&quot;Comic Sans MS&quot;&gt;&lt;b&gt;tail&lt;/b&gt;&lt;/font&gt;" style="text;html=1;strokeColor=#F5F5F5;fillColor=#F5F5F5;align=center;verticalAlign=middle;whiteSpace=wrap;rounded=1;shadow=1;sketch=0;fontColor=#333333;" vertex="1" parent="vxc2h0eWn3y-0ffUBblD-1">
          <mxGeometry x="650" y="329" width="60" height="30" as="geometry" />
        </mxCell>
        <mxCell id="vxc2h0eWn3y-0ffUBblD-29" value="" style="shape=table;startSize=0;container=1;collapsible=0;childLayout=tableLayout;shadow=1;sketch=0;strokeColor=#6D1F00;fontColor=#ffffff;fillColor=#a0522d;" vertex="1" parent="vxc2h0eWn3y-0ffUBblD-1">
          <mxGeometry x="140" y="750" width="60" height="40" as="geometry" />
        </mxCell>
        <mxCell id="vxc2h0eWn3y-0ffUBblD-30" value="" style="shape=tableRow;horizontal=0;startSize=0;swimlaneHead=0;swimlaneBody=0;top=0;left=0;bottom=0;right=0;collapsible=0;dropTarget=0;fillColor=none;points=[[0,0.5],[1,0.5]];portConstraint=eastwest;shadow=1;sketch=0;strokeColor=#909090;fontColor=#1A1A1A;" vertex="1" parent="vxc2h0eWn3y-0ffUBblD-29">
          <mxGeometry width="60" height="40" as="geometry" />
        </mxCell>
        <mxCell id="vxc2h0eWn3y-0ffUBblD-31" value="" style="shape=partialRectangle;html=1;whiteSpace=wrap;connectable=0;overflow=hidden;fillColor=none;top=0;left=0;bottom=0;right=0;pointerEvents=1;shadow=1;sketch=0;strokeColor=#909090;fontColor=#1A1A1A;" vertex="1" parent="vxc2h0eWn3y-0ffUBblD-30">
          <mxGeometry width="60" height="40" as="geometry">
            <mxRectangle width="60" height="40" as="alternateBounds" />
          </mxGeometry>
        </mxCell>
        <mxCell id="vxc2h0eWn3y-0ffUBblD-32" value="" style="shape=table;startSize=0;container=1;collapsible=0;childLayout=tableLayout;shadow=1;sketch=0;strokeColor=#6D1F00;fontColor=#ffffff;fillColor=#a0522d;" vertex="1" parent="vxc2h0eWn3y-0ffUBblD-1">
          <mxGeometry x="340" y="750" width="60" height="40" as="geometry" />
        </mxCell>
        <mxCell id="vxc2h0eWn3y-0ffUBblD-33" value="" style="shape=tableRow;horizontal=0;startSize=0;swimlaneHead=0;swimlaneBody=0;top=0;left=0;bottom=0;right=0;collapsible=0;dropTarget=0;fillColor=none;points=[[0,0.5],[1,0.5]];portConstraint=eastwest;shadow=1;sketch=0;strokeColor=#909090;fontColor=#1A1A1A;" vertex="1" parent="vxc2h0eWn3y-0ffUBblD-32">
          <mxGeometry width="60" height="40" as="geometry" />
        </mxCell>
        <mxCell id="vxc2h0eWn3y-0ffUBblD-34" value="" style="shape=partialRectangle;html=1;whiteSpace=wrap;connectable=0;overflow=hidden;fillColor=none;top=0;left=0;bottom=0;right=0;pointerEvents=1;shadow=1;sketch=0;strokeColor=#909090;fontColor=#1A1A1A;" vertex="1" parent="vxc2h0eWn3y-0ffUBblD-33">
          <mxGeometry width="60" height="40" as="geometry">
            <mxRectangle width="60" height="40" as="alternateBounds" />
          </mxGeometry>
        </mxCell>
        <mxCell id="vxc2h0eWn3y-0ffUBblD-35" style="edgeStyle=orthogonalEdgeStyle;rounded=0;orthogonalLoop=1;jettySize=auto;html=1;entryX=0;entryY=0.5;entryDx=0;entryDy=0;strokeColor=#000000;fontColor=#1A1A1A;" edge="1" parent="vxc2h0eWn3y-0ffUBblD-1" source="vxc2h0eWn3y-0ffUBblD-30" target="vxc2h0eWn3y-0ffUBblD-33">
          <mxGeometry relative="1" as="geometry" />
        </mxCell>
        <mxCell id="vxc2h0eWn3y-0ffUBblD-36" style="edgeStyle=orthogonalEdgeStyle;rounded=0;orthogonalLoop=1;jettySize=auto;html=1;entryX=0;entryY=0.5;entryDx=0;entryDy=0;strokeColor=#000000;fontColor=#1A1A1A;" edge="1" parent="vxc2h0eWn3y-0ffUBblD-1" target="vxc2h0eWn3y-0ffUBblD-51">
          <mxGeometry relative="1" as="geometry">
            <mxPoint x="400" y="770" as="sourcePoint" />
          </mxGeometry>
        </mxCell>
        <mxCell id="vxc2h0eWn3y-0ffUBblD-37" value="" style="shape=table;startSize=0;container=1;collapsible=0;childLayout=tableLayout;shadow=1;sketch=0;strokeColor=#6D1F00;fontColor=#ffffff;fillColor=#a0522d;" vertex="1" parent="vxc2h0eWn3y-0ffUBblD-1">
          <mxGeometry x="723" y="750" width="60" height="40" as="geometry" />
        </mxCell>
        <mxCell id="vxc2h0eWn3y-0ffUBblD-38" value="" style="shape=tableRow;horizontal=0;startSize=0;swimlaneHead=0;swimlaneBody=0;top=0;left=0;bottom=0;right=0;collapsible=0;dropTarget=0;fillColor=none;points=[[0,0.5],[1,0.5]];portConstraint=eastwest;shadow=1;sketch=0;strokeColor=#909090;fontColor=#1A1A1A;" vertex="1" parent="vxc2h0eWn3y-0ffUBblD-37">
          <mxGeometry width="60" height="40" as="geometry" />
        </mxCell>
        <mxCell id="vxc2h0eWn3y-0ffUBblD-39" value="" style="shape=partialRectangle;html=1;whiteSpace=wrap;connectable=0;overflow=hidden;fillColor=none;top=0;left=0;bottom=0;right=0;pointerEvents=1;shadow=1;sketch=0;strokeColor=#909090;fontColor=#1A1A1A;" vertex="1" parent="vxc2h0eWn3y-0ffUBblD-38">
          <mxGeometry width="60" height="40" as="geometry">
            <mxRectangle width="60" height="40" as="alternateBounds" />
          </mxGeometry>
        </mxCell>
        <mxCell id="vxc2h0eWn3y-0ffUBblD-40" style="edgeStyle=orthogonalEdgeStyle;rounded=0;orthogonalLoop=1;jettySize=auto;html=1;entryX=0;entryY=0.5;entryDx=0;entryDy=0;strokeColor=#000000;fontColor=#1A1A1A;startArrow=none;" edge="1" parent="vxc2h0eWn3y-0ffUBblD-1" source="vxc2h0eWn3y-0ffUBblD-50" target="vxc2h0eWn3y-0ffUBblD-38">
          <mxGeometry relative="1" as="geometry">
            <mxPoint x="520" y="770" as="sourcePoint" />
          </mxGeometry>
        </mxCell>
        <mxCell id="vxc2h0eWn3y-0ffUBblD-41" style="edgeStyle=orthogonalEdgeStyle;curved=1;rounded=0;orthogonalLoop=1;jettySize=auto;html=1;entryX=0.5;entryY=0;entryDx=0;entryDy=0;entryPerimeter=0;strokeColor=#000000;fontFamily=Comic Sans MS;fontSize=18;fontColor=#1A1A1A;" edge="1" parent="vxc2h0eWn3y-0ffUBblD-1" source="vxc2h0eWn3y-0ffUBblD-42">
          <mxGeometry relative="1" as="geometry">
            <mxPoint x="170" y="750" as="targetPoint" />
          </mxGeometry>
        </mxCell>
        <mxCell id="vxc2h0eWn3y-0ffUBblD-42" value="&lt;font style=&quot;font-size: 18px;&quot; face=&quot;Comic Sans MS&quot;&gt;&lt;b&gt;firstWaiter&lt;/b&gt;&lt;/font&gt;" style="text;html=1;strokeColor=#E3C800;fillColor=#E3C800;align=center;verticalAlign=middle;whiteSpace=wrap;rounded=1;shadow=1;sketch=0;fontColor=#000000;" vertex="1" parent="vxc2h0eWn3y-0ffUBblD-1">
          <mxGeometry x="100" y="660" width="140" height="40" as="geometry" />
        </mxCell>
        <mxCell id="vxc2h0eWn3y-0ffUBblD-43" style="edgeStyle=orthogonalEdgeStyle;curved=1;rounded=0;orthogonalLoop=1;jettySize=auto;html=1;entryX=0.5;entryY=0;entryDx=0;entryDy=0;entryPerimeter=0;strokeColor=#000000;fontFamily=Comic Sans MS;fontSize=18;fontColor=#1A1A1A;" edge="1" parent="vxc2h0eWn3y-0ffUBblD-1" source="vxc2h0eWn3y-0ffUBblD-44">
          <mxGeometry relative="1" as="geometry">
            <mxPoint x="750" y="750" as="targetPoint" />
          </mxGeometry>
        </mxCell>
        <mxCell id="vxc2h0eWn3y-0ffUBblD-44" value="&lt;font style=&quot;font-size: 18px;&quot; face=&quot;Comic Sans MS&quot;&gt;&lt;b&gt;lastWaiter&lt;/b&gt;&lt;/font&gt;" style="text;html=1;strokeColor=#E3C800;fillColor=#e3c800;align=center;verticalAlign=middle;whiteSpace=wrap;rounded=1;shadow=1;sketch=0;fontColor=#000000;" vertex="1" parent="vxc2h0eWn3y-0ffUBblD-1">
          <mxGeometry x="680" y="660" width="140" height="40" as="geometry" />
        </mxCell>
        <mxCell id="vxc2h0eWn3y-0ffUBblD-45" value="&lt;b&gt;nextWaiter&lt;/b&gt;" style="rounded=1;whiteSpace=wrap;html=1;shadow=1;sketch=0;strokeColor=#6D8764;fontFamily=Comic Sans MS;fontSize=18;fontColor=#ffffff;fillColor=#6D8764;" vertex="1" parent="vxc2h0eWn3y-0ffUBblD-1">
          <mxGeometry x="220" y="720" width="110" height="40" as="geometry" />
        </mxCell>
        <mxCell id="vxc2h0eWn3y-0ffUBblD-46" value="&lt;b&gt;prev&lt;/b&gt;" style="rounded=1;whiteSpace=wrap;html=1;shadow=1;sketch=0;strokeColor=#6D8764;fontFamily=Comic Sans MS;fontSize=18;fontColor=#ffffff;fillColor=#6D8764;" vertex="1" parent="vxc2h0eWn3y-0ffUBblD-1">
          <mxGeometry x="200" y="450" width="50" height="30" as="geometry" />
        </mxCell>
        <mxCell id="vxc2h0eWn3y-0ffUBblD-47" value="&lt;b&gt;next&lt;/b&gt;" style="rounded=1;whiteSpace=wrap;html=1;shadow=1;sketch=0;strokeColor=#6D8764;fontFamily=Comic Sans MS;fontSize=18;fontColor=#ffffff;fillColor=#6D8764;" vertex="1" parent="vxc2h0eWn3y-0ffUBblD-1">
          <mxGeometry x="202" y="390" width="46" height="30" as="geometry" />
        </mxCell>
        <mxCell id="vxc2h0eWn3y-0ffUBblD-48" value="&lt;b&gt;同步队列&lt;/b&gt;" style="text;html=1;strokeColor=#76608A;fillColor=#76608A;align=center;verticalAlign=middle;whiteSpace=wrap;rounded=1;shadow=1;sketch=0;fontFamily=Comic Sans MS;fontSize=18;fontColor=#ffffff;" vertex="1" parent="vxc2h0eWn3y-0ffUBblD-1">
          <mxGeometry y="390" width="100" height="60" as="geometry" />
        </mxCell>
        <mxCell id="vxc2h0eWn3y-0ffUBblD-49" value="&lt;b&gt;Condition&lt;br&gt;条件队列&lt;br&gt;&lt;/b&gt;" style="text;html=1;strokeColor=#76608A;fillColor=#76608A;align=center;verticalAlign=middle;whiteSpace=wrap;rounded=1;shadow=1;sketch=0;fontFamily=Comic Sans MS;fontSize=18;fontColor=#ffffff;" vertex="1" parent="vxc2h0eWn3y-0ffUBblD-1">
          <mxGeometry y="735" width="100" height="55" as="geometry" />
        </mxCell>
        <mxCell id="vxc2h0eWn3y-0ffUBblD-50" value="" style="shape=table;startSize=0;container=1;collapsible=0;childLayout=tableLayout;shadow=1;sketch=0;strokeColor=#6D1F00;fontColor=#ffffff;fillColor=#a0522d;" vertex="1" parent="vxc2h0eWn3y-0ffUBblD-1">
          <mxGeometry x="510" y="750" width="60" height="40" as="geometry" />
        </mxCell>
        <mxCell id="vxc2h0eWn3y-0ffUBblD-51" value="" style="shape=tableRow;horizontal=0;startSize=0;swimlaneHead=0;swimlaneBody=0;top=0;left=0;bottom=0;right=0;collapsible=0;dropTarget=0;fillColor=none;points=[[0,0.5],[1,0.5]];portConstraint=eastwest;shadow=1;sketch=0;strokeColor=#909090;fontColor=#1A1A1A;" vertex="1" parent="vxc2h0eWn3y-0ffUBblD-50">
          <mxGeometry width="60" height="40" as="geometry" />
        </mxCell>
        <mxCell id="vxc2h0eWn3y-0ffUBblD-52" value="" style="shape=partialRectangle;html=1;whiteSpace=wrap;connectable=0;overflow=hidden;fillColor=none;top=0;left=0;bottom=0;right=0;pointerEvents=1;shadow=1;sketch=0;strokeColor=#909090;fontColor=#1A1A1A;" vertex="1" parent="vxc2h0eWn3y-0ffUBblD-51">
          <mxGeometry width="60" height="40" as="geometry">
            <mxRectangle width="60" height="40" as="alternateBounds" />
          </mxGeometry>
        </mxCell>
        <mxCell id="vxc2h0eWn3y-0ffUBblD-53" value="" style="edgeStyle=orthogonalEdgeStyle;rounded=0;orthogonalLoop=1;jettySize=auto;html=1;entryX=0;entryY=0.5;entryDx=0;entryDy=0;strokeColor=#000000;fontColor=#1A1A1A;endArrow=none;" edge="1" parent="vxc2h0eWn3y-0ffUBblD-1" target="vxc2h0eWn3y-0ffUBblD-50">
          <mxGeometry relative="1" as="geometry">
            <mxPoint x="520" y="770" as="sourcePoint" />
            <mxPoint x="670" y="770" as="targetPoint" />
          </mxGeometry>
        </mxCell>
      </root>
    </mxGraphModel>
  </diagram>
  <diagram name="第 2 页 的副本" id="lPzd7kzospksTSQHfGXi">
    <mxGraphModel dx="1038" dy="547" grid="1" gridSize="10" guides="1" tooltips="1" connect="1" arrows="1" fold="1" page="1" pageScale="1" pageWidth="827" pageHeight="1169" background="#EEEEEE" math="0" shadow="0">
      <root>
        <mxCell id="PSuJ1QA48Y3Nm3l4t20U-0" />
        <mxCell id="PSuJ1QA48Y3Nm3l4t20U-1" parent="PSuJ1QA48Y3Nm3l4t20U-0" />
        <mxCell id="PSuJ1QA48Y3Nm3l4t20U-2" value="" style="shape=table;startSize=0;container=1;collapsible=0;childLayout=tableLayout;shadow=1;sketch=0;strokeColor=#666666;fontColor=#333333;fillColor=#f5f5f5;" parent="PSuJ1QA48Y3Nm3l4t20U-1" vertex="1">
          <mxGeometry x="130" y="410" width="60" height="40" as="geometry" />
        </mxCell>
        <mxCell id="PSuJ1QA48Y3Nm3l4t20U-3" value="" style="shape=tableRow;horizontal=0;startSize=0;swimlaneHead=0;swimlaneBody=0;top=0;left=0;bottom=0;right=0;collapsible=0;dropTarget=0;fillColor=none;points=[[0,0.5],[1,0.5]];portConstraint=eastwest;shadow=1;sketch=0;strokeColor=#909090;fontColor=#1A1A1A;" parent="PSuJ1QA48Y3Nm3l4t20U-2" vertex="1">
          <mxGeometry width="60" height="40" as="geometry" />
        </mxCell>
        <mxCell id="PSuJ1QA48Y3Nm3l4t20U-4" value="" style="shape=partialRectangle;html=1;whiteSpace=wrap;connectable=0;overflow=hidden;fillColor=none;top=0;left=0;bottom=0;right=0;pointerEvents=1;shadow=1;sketch=0;strokeColor=#909090;fontColor=#1A1A1A;" parent="PSuJ1QA48Y3Nm3l4t20U-3" vertex="1">
          <mxGeometry width="60" height="40" as="geometry">
            <mxRectangle width="60" height="40" as="alternateBounds" />
          </mxGeometry>
        </mxCell>
        <mxCell id="PSuJ1QA48Y3Nm3l4t20U-5" value="" style="shape=table;startSize=0;container=1;collapsible=0;childLayout=tableLayout;shadow=1;sketch=0;strokeColor=#666666;fontColor=#333333;fillColor=#f5f5f5;" parent="PSuJ1QA48Y3Nm3l4t20U-1" vertex="1">
          <mxGeometry x="260" y="410" width="60" height="40" as="geometry" />
        </mxCell>
        <mxCell id="PSuJ1QA48Y3Nm3l4t20U-6" value="" style="shape=tableRow;horizontal=0;startSize=0;swimlaneHead=0;swimlaneBody=0;top=0;left=0;bottom=0;right=0;collapsible=0;dropTarget=0;fillColor=none;points=[[0,0.5],[1,0.5]];portConstraint=eastwest;shadow=1;sketch=0;strokeColor=#909090;fontColor=#1A1A1A;" parent="PSuJ1QA48Y3Nm3l4t20U-5" vertex="1">
          <mxGeometry width="60" height="40" as="geometry" />
        </mxCell>
        <mxCell id="PSuJ1QA48Y3Nm3l4t20U-7" value="" style="shape=partialRectangle;html=1;whiteSpace=wrap;connectable=0;overflow=hidden;fillColor=none;top=0;left=0;bottom=0;right=0;pointerEvents=1;shadow=1;sketch=0;strokeColor=#909090;fontColor=#1A1A1A;" parent="PSuJ1QA48Y3Nm3l4t20U-6" vertex="1">
          <mxGeometry width="60" height="40" as="geometry">
            <mxRectangle width="60" height="40" as="alternateBounds" />
          </mxGeometry>
        </mxCell>
        <mxCell id="PSuJ1QA48Y3Nm3l4t20U-8" style="edgeStyle=orthogonalEdgeStyle;rounded=0;orthogonalLoop=1;jettySize=auto;html=1;entryX=0;entryY=0.5;entryDx=0;entryDy=0;strokeColor=#000000;fontColor=#1A1A1A;" parent="PSuJ1QA48Y3Nm3l4t20U-1" source="PSuJ1QA48Y3Nm3l4t20U-3" target="PSuJ1QA48Y3Nm3l4t20U-6" edge="1">
          <mxGeometry relative="1" as="geometry" />
        </mxCell>
        <mxCell id="PSuJ1QA48Y3Nm3l4t20U-9" value="" style="endArrow=classic;html=1;rounded=0;strokeColor=#000000;fontColor=#1A1A1A;" parent="PSuJ1QA48Y3Nm3l4t20U-1" edge="1">
          <mxGeometry width="50" height="50" relative="1" as="geometry">
            <mxPoint x="260" y="440" as="sourcePoint" />
            <mxPoint x="190" y="440" as="targetPoint" />
          </mxGeometry>
        </mxCell>
        <mxCell id="PSuJ1QA48Y3Nm3l4t20U-10" value="" style="shape=table;startSize=0;container=1;collapsible=0;childLayout=tableLayout;shadow=1;sketch=0;strokeColor=#666666;fontColor=#333333;fillColor=#f5f5f5;" parent="PSuJ1QA48Y3Nm3l4t20U-1" vertex="1">
          <mxGeometry x="390" y="410" width="60" height="40" as="geometry" />
        </mxCell>
        <mxCell id="PSuJ1QA48Y3Nm3l4t20U-11" value="" style="shape=tableRow;horizontal=0;startSize=0;swimlaneHead=0;swimlaneBody=0;top=0;left=0;bottom=0;right=0;collapsible=0;dropTarget=0;fillColor=none;points=[[0,0.5],[1,0.5]];portConstraint=eastwest;shadow=1;sketch=0;strokeColor=#909090;fontColor=#1A1A1A;" parent="PSuJ1QA48Y3Nm3l4t20U-10" vertex="1">
          <mxGeometry width="60" height="40" as="geometry" />
        </mxCell>
        <mxCell id="PSuJ1QA48Y3Nm3l4t20U-12" value="" style="shape=partialRectangle;html=1;whiteSpace=wrap;connectable=0;overflow=hidden;fillColor=none;top=0;left=0;bottom=0;right=0;pointerEvents=1;shadow=1;sketch=0;strokeColor=#909090;fontColor=#1A1A1A;" parent="PSuJ1QA48Y3Nm3l4t20U-11" vertex="1">
          <mxGeometry width="60" height="40" as="geometry">
            <mxRectangle width="60" height="40" as="alternateBounds" />
          </mxGeometry>
        </mxCell>
        <mxCell id="PSuJ1QA48Y3Nm3l4t20U-13" style="edgeStyle=orthogonalEdgeStyle;rounded=0;orthogonalLoop=1;jettySize=auto;html=1;entryX=0;entryY=0.5;entryDx=0;entryDy=0;strokeColor=#000000;fontColor=#1A1A1A;" parent="PSuJ1QA48Y3Nm3l4t20U-1" target="PSuJ1QA48Y3Nm3l4t20U-11" edge="1">
          <mxGeometry relative="1" as="geometry">
            <mxPoint x="320" y="430" as="sourcePoint" />
          </mxGeometry>
        </mxCell>
        <mxCell id="PSuJ1QA48Y3Nm3l4t20U-14" value="" style="endArrow=classic;html=1;rounded=0;strokeColor=#000000;fontColor=#1A1A1A;" parent="PSuJ1QA48Y3Nm3l4t20U-1" edge="1">
          <mxGeometry width="50" height="50" relative="1" as="geometry">
            <mxPoint x="390" y="440" as="sourcePoint" />
            <mxPoint x="320" y="440" as="targetPoint" />
          </mxGeometry>
        </mxCell>
        <mxCell id="PSuJ1QA48Y3Nm3l4t20U-15" value="" style="shape=table;startSize=0;container=1;collapsible=0;childLayout=tableLayout;shadow=1;sketch=0;strokeColor=#666666;fontColor=#333333;fillColor=#f5f5f5;" parent="PSuJ1QA48Y3Nm3l4t20U-1" vertex="1">
          <mxGeometry x="520" y="410" width="60" height="40" as="geometry" />
        </mxCell>
        <mxCell id="PSuJ1QA48Y3Nm3l4t20U-16" value="" style="shape=tableRow;horizontal=0;startSize=0;swimlaneHead=0;swimlaneBody=0;top=0;left=0;bottom=0;right=0;collapsible=0;dropTarget=0;fillColor=none;points=[[0,0.5],[1,0.5]];portConstraint=eastwest;shadow=1;sketch=0;strokeColor=#909090;fontColor=#1A1A1A;" parent="PSuJ1QA48Y3Nm3l4t20U-15" vertex="1">
          <mxGeometry width="60" height="40" as="geometry" />
        </mxCell>
        <mxCell id="PSuJ1QA48Y3Nm3l4t20U-17" value="" style="shape=partialRectangle;html=1;whiteSpace=wrap;connectable=0;overflow=hidden;fillColor=none;top=0;left=0;bottom=0;right=0;pointerEvents=1;shadow=1;sketch=0;strokeColor=#909090;fontColor=#1A1A1A;" parent="PSuJ1QA48Y3Nm3l4t20U-16" vertex="1">
          <mxGeometry width="60" height="40" as="geometry">
            <mxRectangle width="60" height="40" as="alternateBounds" />
          </mxGeometry>
        </mxCell>
        <mxCell id="PSuJ1QA48Y3Nm3l4t20U-18" style="edgeStyle=orthogonalEdgeStyle;rounded=0;orthogonalLoop=1;jettySize=auto;html=1;entryX=0;entryY=0.5;entryDx=0;entryDy=0;strokeColor=#000000;fontColor=#1A1A1A;" parent="PSuJ1QA48Y3Nm3l4t20U-1" target="PSuJ1QA48Y3Nm3l4t20U-16" edge="1">
          <mxGeometry relative="1" as="geometry">
            <mxPoint x="450" y="430" as="sourcePoint" />
          </mxGeometry>
        </mxCell>
        <mxCell id="PSuJ1QA48Y3Nm3l4t20U-19" value="" style="endArrow=classic;html=1;rounded=0;strokeColor=#000000;fontColor=#1A1A1A;" parent="PSuJ1QA48Y3Nm3l4t20U-1" edge="1">
          <mxGeometry width="50" height="50" relative="1" as="geometry">
            <mxPoint x="520" y="440" as="sourcePoint" />
            <mxPoint x="450" y="440" as="targetPoint" />
          </mxGeometry>
        </mxCell>
        <mxCell id="PSuJ1QA48Y3Nm3l4t20U-20" value="" style="shape=table;startSize=0;container=1;collapsible=0;childLayout=tableLayout;shadow=1;sketch=0;strokeColor=#666666;fontColor=#333333;fillColor=#f5f5f5;" parent="PSuJ1QA48Y3Nm3l4t20U-1" vertex="1">
          <mxGeometry x="650" y="410" width="60" height="40" as="geometry" />
        </mxCell>
        <mxCell id="PSuJ1QA48Y3Nm3l4t20U-21" value="" style="shape=tableRow;horizontal=0;startSize=0;swimlaneHead=0;swimlaneBody=0;top=0;left=0;bottom=0;right=0;collapsible=0;dropTarget=0;fillColor=none;points=[[0,0.5],[1,0.5]];portConstraint=eastwest;shadow=1;sketch=0;strokeColor=#909090;fontColor=#1A1A1A;" parent="PSuJ1QA48Y3Nm3l4t20U-20" vertex="1">
          <mxGeometry width="60" height="40" as="geometry" />
        </mxCell>
        <mxCell id="PSuJ1QA48Y3Nm3l4t20U-22" value="" style="shape=partialRectangle;html=1;whiteSpace=wrap;connectable=0;overflow=hidden;fillColor=none;top=0;left=0;bottom=0;right=0;pointerEvents=1;shadow=1;sketch=0;strokeColor=#909090;fontColor=#1A1A1A;" parent="PSuJ1QA48Y3Nm3l4t20U-21" vertex="1">
          <mxGeometry width="60" height="40" as="geometry">
            <mxRectangle width="60" height="40" as="alternateBounds" />
          </mxGeometry>
        </mxCell>
        <mxCell id="PSuJ1QA48Y3Nm3l4t20U-23" style="edgeStyle=orthogonalEdgeStyle;rounded=0;orthogonalLoop=1;jettySize=auto;html=1;entryX=0;entryY=0.5;entryDx=0;entryDy=0;strokeColor=#000000;fontColor=#1A1A1A;" parent="PSuJ1QA48Y3Nm3l4t20U-1" target="PSuJ1QA48Y3Nm3l4t20U-21" edge="1">
          <mxGeometry relative="1" as="geometry">
            <mxPoint x="580" y="430" as="sourcePoint" />
          </mxGeometry>
        </mxCell>
        <mxCell id="PSuJ1QA48Y3Nm3l4t20U-24" value="" style="endArrow=classic;html=1;rounded=0;strokeColor=#000000;fontColor=#1A1A1A;" parent="PSuJ1QA48Y3Nm3l4t20U-1" edge="1">
          <mxGeometry width="50" height="50" relative="1" as="geometry">
            <mxPoint x="650" y="440" as="sourcePoint" />
            <mxPoint x="580" y="440" as="targetPoint" />
          </mxGeometry>
        </mxCell>
        <mxCell id="PSuJ1QA48Y3Nm3l4t20U-25" style="edgeStyle=orthogonalEdgeStyle;curved=1;rounded=0;orthogonalLoop=1;jettySize=auto;html=1;entryX=0.5;entryY=0;entryDx=0;entryDy=0;entryPerimeter=0;strokeColor=#000000;fontFamily=Comic Sans MS;fontSize=18;fontColor=#1A1A1A;" parent="PSuJ1QA48Y3Nm3l4t20U-1" source="PSuJ1QA48Y3Nm3l4t20U-26" target="PSuJ1QA48Y3Nm3l4t20U-3" edge="1">
          <mxGeometry relative="1" as="geometry" />
        </mxCell>
        <mxCell id="PSuJ1QA48Y3Nm3l4t20U-26" value="&lt;font style=&quot;font-size: 18px;&quot; face=&quot;Comic Sans MS&quot;&gt;&lt;b&gt;head&lt;/b&gt;&lt;/font&gt;" style="text;html=1;strokeColor=#F5F5F5;fillColor=#F5F5F5;align=center;verticalAlign=middle;whiteSpace=wrap;rounded=1;shadow=1;sketch=0;fontColor=#333333;" parent="PSuJ1QA48Y3Nm3l4t20U-1" vertex="1">
          <mxGeometry x="130" y="330" width="60" height="30" as="geometry" />
        </mxCell>
        <mxCell id="PSuJ1QA48Y3Nm3l4t20U-27" style="edgeStyle=orthogonalEdgeStyle;curved=1;rounded=0;orthogonalLoop=1;jettySize=auto;html=1;entryX=0.693;entryY=0.025;entryDx=0;entryDy=0;entryPerimeter=0;strokeColor=#000000;fontFamily=Comic Sans MS;fontSize=18;fontColor=#1A1A1A;" parent="PSuJ1QA48Y3Nm3l4t20U-1" source="PSuJ1QA48Y3Nm3l4t20U-28" target="PSuJ1QA48Y3Nm3l4t20U-21" edge="1">
          <mxGeometry relative="1" as="geometry" />
        </mxCell>
        <mxCell id="PSuJ1QA48Y3Nm3l4t20U-28" value="&lt;font style=&quot;font-size: 18px;&quot; face=&quot;Comic Sans MS&quot;&gt;&lt;b&gt;tail&lt;/b&gt;&lt;/font&gt;" style="text;html=1;strokeColor=#F5F5F5;fillColor=#F5F5F5;align=center;verticalAlign=middle;whiteSpace=wrap;rounded=1;shadow=1;sketch=0;fontColor=#333333;" parent="PSuJ1QA48Y3Nm3l4t20U-1" vertex="1">
          <mxGeometry x="660" y="330" width="60" height="30" as="geometry" />
        </mxCell>
        <mxCell id="PSuJ1QA48Y3Nm3l4t20U-29" value="" style="shape=table;startSize=0;container=1;collapsible=0;childLayout=tableLayout;shadow=1;sketch=0;strokeColor=#6D1F00;fontColor=#ffffff;fillColor=#a0522d;" parent="PSuJ1QA48Y3Nm3l4t20U-1" vertex="1">
          <mxGeometry x="160" y="810" width="60" height="40" as="geometry" />
        </mxCell>
        <mxCell id="PSuJ1QA48Y3Nm3l4t20U-30" value="" style="shape=tableRow;horizontal=0;startSize=0;swimlaneHead=0;swimlaneBody=0;top=0;left=0;bottom=0;right=0;collapsible=0;dropTarget=0;fillColor=none;points=[[0,0.5],[1,0.5]];portConstraint=eastwest;shadow=1;sketch=0;strokeColor=#909090;fontColor=#1A1A1A;" parent="PSuJ1QA48Y3Nm3l4t20U-29" vertex="1">
          <mxGeometry width="60" height="40" as="geometry" />
        </mxCell>
        <mxCell id="PSuJ1QA48Y3Nm3l4t20U-31" value="" style="shape=partialRectangle;html=1;whiteSpace=wrap;connectable=0;overflow=hidden;fillColor=none;top=0;left=0;bottom=0;right=0;pointerEvents=1;shadow=1;sketch=0;strokeColor=#909090;fontColor=#1A1A1A;" parent="PSuJ1QA48Y3Nm3l4t20U-30" vertex="1">
          <mxGeometry width="60" height="40" as="geometry">
            <mxRectangle width="60" height="40" as="alternateBounds" />
          </mxGeometry>
        </mxCell>
        <mxCell id="PSuJ1QA48Y3Nm3l4t20U-32" value="" style="shape=table;startSize=0;container=1;collapsible=0;childLayout=tableLayout;shadow=1;sketch=0;strokeColor=#6D1F00;fontColor=#ffffff;fillColor=#a0522d;" parent="PSuJ1QA48Y3Nm3l4t20U-1" vertex="1">
          <mxGeometry x="360" y="810" width="60" height="40" as="geometry" />
        </mxCell>
        <mxCell id="PSuJ1QA48Y3Nm3l4t20U-33" value="" style="shape=tableRow;horizontal=0;startSize=0;swimlaneHead=0;swimlaneBody=0;top=0;left=0;bottom=0;right=0;collapsible=0;dropTarget=0;fillColor=none;points=[[0,0.5],[1,0.5]];portConstraint=eastwest;shadow=1;sketch=0;strokeColor=#909090;fontColor=#1A1A1A;" parent="PSuJ1QA48Y3Nm3l4t20U-32" vertex="1">
          <mxGeometry width="60" height="40" as="geometry" />
        </mxCell>
        <mxCell id="PSuJ1QA48Y3Nm3l4t20U-34" value="" style="shape=partialRectangle;html=1;whiteSpace=wrap;connectable=0;overflow=hidden;fillColor=none;top=0;left=0;bottom=0;right=0;pointerEvents=1;shadow=1;sketch=0;strokeColor=#909090;fontColor=#1A1A1A;" parent="PSuJ1QA48Y3Nm3l4t20U-33" vertex="1">
          <mxGeometry width="60" height="40" as="geometry">
            <mxRectangle width="60" height="40" as="alternateBounds" />
          </mxGeometry>
        </mxCell>
        <mxCell id="PSuJ1QA48Y3Nm3l4t20U-35" style="edgeStyle=orthogonalEdgeStyle;rounded=0;orthogonalLoop=1;jettySize=auto;html=1;entryX=0;entryY=0.5;entryDx=0;entryDy=0;strokeColor=#000000;fontColor=#1A1A1A;" parent="PSuJ1QA48Y3Nm3l4t20U-1" source="PSuJ1QA48Y3Nm3l4t20U-30" target="PSuJ1QA48Y3Nm3l4t20U-33" edge="1">
          <mxGeometry relative="1" as="geometry" />
        </mxCell>
        <mxCell id="PSuJ1QA48Y3Nm3l4t20U-36" value="" style="shape=table;startSize=0;container=1;collapsible=0;childLayout=tableLayout;shadow=1;sketch=0;strokeColor=#6D1F00;fontColor=#ffffff;fillColor=#a0522d;" parent="PSuJ1QA48Y3Nm3l4t20U-1" vertex="1">
          <mxGeometry x="480" y="810" width="60" height="40" as="geometry" />
        </mxCell>
        <mxCell id="PSuJ1QA48Y3Nm3l4t20U-37" value="" style="shape=tableRow;horizontal=0;startSize=0;swimlaneHead=0;swimlaneBody=0;top=0;left=0;bottom=0;right=0;collapsible=0;dropTarget=0;fillColor=none;points=[[0,0.5],[1,0.5]];portConstraint=eastwest;shadow=1;sketch=0;strokeColor=#909090;fontColor=#1A1A1A;" parent="PSuJ1QA48Y3Nm3l4t20U-36" vertex="1">
          <mxGeometry width="60" height="40" as="geometry" />
        </mxCell>
        <mxCell id="PSuJ1QA48Y3Nm3l4t20U-38" value="" style="shape=partialRectangle;html=1;whiteSpace=wrap;connectable=0;overflow=hidden;fillColor=none;top=0;left=0;bottom=0;right=0;pointerEvents=1;shadow=1;sketch=0;strokeColor=#909090;fontColor=#1A1A1A;" parent="PSuJ1QA48Y3Nm3l4t20U-37" vertex="1">
          <mxGeometry width="60" height="40" as="geometry">
            <mxRectangle width="60" height="40" as="alternateBounds" />
          </mxGeometry>
        </mxCell>
        <mxCell id="PSuJ1QA48Y3Nm3l4t20U-39" style="edgeStyle=orthogonalEdgeStyle;rounded=0;orthogonalLoop=1;jettySize=auto;html=1;entryX=0;entryY=0.5;entryDx=0;entryDy=0;strokeColor=#000000;fontColor=#1A1A1A;" parent="PSuJ1QA48Y3Nm3l4t20U-1" target="PSuJ1QA48Y3Nm3l4t20U-37" edge="1">
          <mxGeometry relative="1" as="geometry">
            <mxPoint x="420" y="830" as="sourcePoint" />
          </mxGeometry>
        </mxCell>
        <mxCell id="PSuJ1QA48Y3Nm3l4t20U-40" value="" style="shape=table;startSize=0;container=1;collapsible=0;childLayout=tableLayout;shadow=1;sketch=0;strokeColor=#6D1F00;fontColor=#ffffff;fillColor=#a0522d;" parent="PSuJ1QA48Y3Nm3l4t20U-1" vertex="1">
          <mxGeometry x="610" y="810" width="60" height="40" as="geometry" />
        </mxCell>
        <mxCell id="PSuJ1QA48Y3Nm3l4t20U-41" value="" style="shape=tableRow;horizontal=0;startSize=0;swimlaneHead=0;swimlaneBody=0;top=0;left=0;bottom=0;right=0;collapsible=0;dropTarget=0;fillColor=none;points=[[0,0.5],[1,0.5]];portConstraint=eastwest;shadow=1;sketch=0;strokeColor=#909090;fontColor=#1A1A1A;" parent="PSuJ1QA48Y3Nm3l4t20U-40" vertex="1">
          <mxGeometry width="60" height="40" as="geometry" />
        </mxCell>
        <mxCell id="PSuJ1QA48Y3Nm3l4t20U-42" value="" style="shape=partialRectangle;html=1;whiteSpace=wrap;connectable=0;overflow=hidden;fillColor=none;top=0;left=0;bottom=0;right=0;pointerEvents=1;shadow=1;sketch=0;strokeColor=#909090;fontColor=#1A1A1A;" parent="PSuJ1QA48Y3Nm3l4t20U-41" vertex="1">
          <mxGeometry width="60" height="40" as="geometry">
            <mxRectangle width="60" height="40" as="alternateBounds" />
          </mxGeometry>
        </mxCell>
        <mxCell id="PSuJ1QA48Y3Nm3l4t20U-43" style="edgeStyle=orthogonalEdgeStyle;rounded=0;orthogonalLoop=1;jettySize=auto;html=1;entryX=0;entryY=0.5;entryDx=0;entryDy=0;strokeColor=#000000;fontColor=#1A1A1A;" parent="PSuJ1QA48Y3Nm3l4t20U-1" target="PSuJ1QA48Y3Nm3l4t20U-41" edge="1">
          <mxGeometry relative="1" as="geometry">
            <mxPoint x="540" y="830" as="sourcePoint" />
          </mxGeometry>
        </mxCell>
        <mxCell id="PSuJ1QA48Y3Nm3l4t20U-44" style="edgeStyle=orthogonalEdgeStyle;curved=1;rounded=0;orthogonalLoop=1;jettySize=auto;html=1;strokeColor=#000000;fontFamily=Comic Sans MS;fontSize=18;fontColor=#1A1A1A;" parent="PSuJ1QA48Y3Nm3l4t20U-1" source="PSuJ1QA48Y3Nm3l4t20U-45" edge="1">
          <mxGeometry relative="1" as="geometry">
            <mxPoint x="190" y="850" as="targetPoint" />
          </mxGeometry>
        </mxCell>
        <mxCell id="PSuJ1QA48Y3Nm3l4t20U-45" value="&lt;font style=&quot;font-size: 18px;&quot; face=&quot;Comic Sans MS&quot;&gt;&lt;b&gt;firstWaiter&lt;/b&gt;&lt;/font&gt;" style="text;html=1;strokeColor=#E3C800;fillColor=#E3C800;align=center;verticalAlign=middle;whiteSpace=wrap;rounded=1;shadow=1;sketch=0;fontColor=#000000;" parent="PSuJ1QA48Y3Nm3l4t20U-1" vertex="1">
          <mxGeometry x="120" y="930" width="140" height="40" as="geometry" />
        </mxCell>
        <mxCell id="PSuJ1QA48Y3Nm3l4t20U-46" style="edgeStyle=orthogonalEdgeStyle;curved=1;rounded=0;orthogonalLoop=1;jettySize=auto;html=1;strokeColor=#000000;fontFamily=Comic Sans MS;fontSize=18;fontColor=#1A1A1A;" parent="PSuJ1QA48Y3Nm3l4t20U-1" source="PSuJ1QA48Y3Nm3l4t20U-47" edge="1">
          <mxGeometry relative="1" as="geometry">
            <mxPoint x="640" y="850" as="targetPoint" />
          </mxGeometry>
        </mxCell>
        <mxCell id="PSuJ1QA48Y3Nm3l4t20U-47" value="&lt;font style=&quot;font-size: 18px;&quot; face=&quot;Comic Sans MS&quot;&gt;&lt;b&gt;lastWaiter&lt;/b&gt;&lt;/font&gt;" style="text;html=1;strokeColor=#E3C800;fillColor=#e3c800;align=center;verticalAlign=middle;whiteSpace=wrap;rounded=1;shadow=1;sketch=0;fontColor=#000000;" parent="PSuJ1QA48Y3Nm3l4t20U-1" vertex="1">
          <mxGeometry x="570" y="930" width="140" height="40" as="geometry" />
        </mxCell>
        <mxCell id="PSuJ1QA48Y3Nm3l4t20U-48" value="&lt;b&gt;nextWaiter&lt;/b&gt;" style="rounded=1;whiteSpace=wrap;html=1;shadow=1;sketch=0;strokeColor=#6D8764;fontFamily=Comic Sans MS;fontSize=18;fontColor=#ffffff;fillColor=#6D8764;" parent="PSuJ1QA48Y3Nm3l4t20U-1" vertex="1">
          <mxGeometry x="240" y="780" width="110" height="40" as="geometry" />
        </mxCell>
        <mxCell id="PSuJ1QA48Y3Nm3l4t20U-49" value="&lt;b&gt;prev&lt;/b&gt;" style="rounded=1;whiteSpace=wrap;html=1;shadow=1;sketch=0;strokeColor=#6D8764;fontFamily=Comic Sans MS;fontSize=18;fontColor=#ffffff;fillColor=#6D8764;" parent="PSuJ1QA48Y3Nm3l4t20U-1" vertex="1">
          <mxGeometry x="200" y="450" width="50" height="30" as="geometry" />
        </mxCell>
        <mxCell id="PSuJ1QA48Y3Nm3l4t20U-50" value="&lt;b&gt;next&lt;/b&gt;" style="rounded=1;whiteSpace=wrap;html=1;shadow=1;sketch=0;strokeColor=#6D8764;fontFamily=Comic Sans MS;fontSize=18;fontColor=#ffffff;fillColor=#6D8764;" parent="PSuJ1QA48Y3Nm3l4t20U-1" vertex="1">
          <mxGeometry x="202" y="390" width="46" height="30" as="geometry" />
        </mxCell>
        <mxCell id="PSuJ1QA48Y3Nm3l4t20U-51" value="&lt;b&gt;同步队列&lt;/b&gt;" style="text;html=1;strokeColor=#76608A;fillColor=#76608A;align=center;verticalAlign=middle;whiteSpace=wrap;rounded=1;shadow=1;sketch=0;fontFamily=Comic Sans MS;fontSize=18;fontColor=#ffffff;" parent="PSuJ1QA48Y3Nm3l4t20U-1" vertex="1">
          <mxGeometry y="360" width="100" height="60" as="geometry" />
        </mxCell>
        <mxCell id="PSuJ1QA48Y3Nm3l4t20U-52" value="&lt;b&gt;Condition&lt;br&gt;条件队列&lt;br&gt;&lt;/b&gt;" style="text;html=1;strokeColor=#76608A;fillColor=#76608A;align=center;verticalAlign=middle;whiteSpace=wrap;rounded=1;shadow=1;sketch=0;fontFamily=Comic Sans MS;fontSize=18;fontColor=#ffffff;" parent="PSuJ1QA48Y3Nm3l4t20U-1" vertex="1">
          <mxGeometry y="795" width="100" height="55" as="geometry" />
        </mxCell>
        <mxCell id="86eyp-0dSxZEEAQ9t6s6-6" value="" style="edgeStyle=elbowEdgeStyle;elbow=vertical;endArrow=classic;html=1;rounded=0;strokeColor=#001DBC;fontColor=#FFFFFF;exitX=0.46;exitY=-0.095;exitDx=0;exitDy=0;exitPerimeter=0;fillColor=#0050ef;strokeWidth=3;" parent="PSuJ1QA48Y3Nm3l4t20U-1" source="PSuJ1QA48Y3Nm3l4t20U-30" target="PSuJ1QA48Y3Nm3l4t20U-21" edge="1">
          <mxGeometry width="50" height="50" relative="1" as="geometry">
            <mxPoint x="190" y="800" as="sourcePoint" />
            <mxPoint x="790" y="430" as="targetPoint" />
            <Array as="points">
              <mxPoint x="520" y="570" />
              <mxPoint x="520" y="530" />
              <mxPoint x="690" y="490" />
              <mxPoint x="670" y="570" />
              <mxPoint x="760" y="730" />
              <mxPoint x="850" y="650" />
              <mxPoint x="910" y="510" />
              <mxPoint x="830" y="490" />
              <mxPoint x="610" y="560" />
              <mxPoint x="410" y="670" />
              <mxPoint x="820" y="730" />
              <mxPoint x="830" y="670" />
              <mxPoint x="820" y="600" />
              <mxPoint x="820" y="470" />
              <mxPoint x="770" y="510" />
              <mxPoint x="600" y="790" />
              <mxPoint x="600" y="770" />
              <mxPoint x="590" y="690" />
              <mxPoint x="530" y="610" />
              <mxPoint x="780" y="480" />
              <mxPoint x="480" y="610" />
              <mxPoint x="230" y="740" />
              <mxPoint x="210" y="760" />
              <mxPoint x="280" y="710" />
              <mxPoint x="210" y="750" />
              <mxPoint x="250" y="720" />
              <mxPoint x="240" y="748" />
            </Array>
          </mxGeometry>
        </mxCell>
      </root>
    </mxGraphModel>
  </diagram>
  <diagram id="6NLnNYO-q-QX3AXaQPuU" name="第 1 页">
    <mxGraphModel dx="1038" dy="547" grid="1" gridSize="10" guides="1" tooltips="1" connect="1" arrows="1" fold="1" page="1" pageScale="1" pageWidth="827" pageHeight="1169" background="#EEEEEE" math="0" shadow="0">
      <root>
        <mxCell id="0" />
        <mxCell id="1" parent="0" />
      </root>
    </mxGraphModel>
  </diagram>
</mxfile>
